<svg width="2194" height="1494" viewBox="0 0 2194 1494" fill="none" xmlns="http://www.w3.org/2000/svg">
<ellipse cx="999.638" cy="787.558" rx="6.77929" ry="7.21852" transform="rotate(-62 999.638 787.558)" fill="#EAEBEC"/>
<ellipse cx="892.963" cy="828.471" rx="6.77929" ry="7.21852" transform="rotate(-62 892.963 828.471)" fill="#EAEBEC"/>
<ellipse cx="740.806" cy="780.946" rx="9.43403" ry="10.0453" transform="rotate(-62 740.806 780.946)" fill="#EAEBEC"/>
<ellipse cx="742.983" cy="860.562" rx="5.76582" ry="5.84265" transform="rotate(-62 742.983 860.562)" fill="#EAEBEC"/>
<ellipse cx="827.741" cy="856.124" rx="5.76582" ry="5.84265" transform="rotate(-62 827.741 856.124)" fill="#EAEBEC"/>
<ellipse cx="896.202" cy="886.759" rx="5.76582" ry="5.84265" transform="rotate(-62 896.202 886.759)" fill="#EAEBEC"/>
<ellipse cx="955.611" cy="730.562" rx="6.77929" ry="7.21852" transform="rotate(-62 955.611 730.562)" fill="#EAEBEC"/>
<circle cx="994.337" cy="850.266" r="3.47154" transform="rotate(-14 994.337 850.266)" fill="#EAEBEC"/>
<circle cx="919.682" cy="856.958" r="6.94309" transform="rotate(-14 919.682 856.958)" fill="#EAEBEC"/>
<circle cx="929.19" cy="899.906" r="6.94309" transform="rotate(-14 929.19 899.906)" fill="#EAEBEC"/>
<circle cx="942.087" cy="927.699" r="3.47154" transform="rotate(-14 942.087 927.699)" fill="#EAEBEC"/>
<circle cx="915.97" cy="956.871" r="3.47154" transform="rotate(-14 915.97 956.871)" fill="#EAEBEC"/>
<circle cx="892.697" cy="920.929" r="3.47154" transform="rotate(-14 892.697 920.929)" fill="#EAEBEC"/>
<circle cx="783.79" cy="769.25" r="3.47154" transform="rotate(-14 783.79 769.25)" fill="#EAEBEC"/>
<circle cx="693.724" cy="728.497" r="3.47154" transform="rotate(-14 693.724 728.497)" fill="#EAEBEC"/>
<circle cx="693.669" cy="814.377" r="3.47154" transform="rotate(-14 693.669 814.377)" fill="#EAEBEC"/>
<circle cx="912.337" cy="927.956" r="3.47154" transform="rotate(-14 912.337 927.956)" fill="#EAEBEC"/>
<circle cx="835.305" cy="913.174" r="5.20732" transform="rotate(-14 835.305 913.174)" fill="#EAEBEC"/>
<circle cx="777.584" cy="985.409" r="5.78591" transform="rotate(-14 777.584 985.409)" fill="#EAEBEC"/>
<circle cx="740.283" cy="941.041" r="5.78591" transform="rotate(-14 740.283 941.041)" fill="#EAEBEC"/>
<path d="M894.437 827.472L955.541 730.543L1000.55 786.703L894.437 827.472ZM894.437 827.472L921.22 858.361M993.635 849.847L1000.83 787.826L921.22 858.361M921.22 858.361L929.614 899.202M921.22 858.361L828.464 857.04M929.614 899.202L828.464 857.04M929.614 899.202L911.914 928.66M828.464 857.04L835.444 913.737M828.464 857.04L743.141 861.617M911.914 928.66L892.132 921.07M911.914 928.66L941.244 926.714M911.914 928.66L915.404 957.009M835.444 913.737L777.725 983.584L740.985 941.462L835.444 913.737ZM835.444 913.737L743.141 861.617M743.141 861.617L739.262 781.486M739.262 781.486L786.702 768.466M739.262 781.486L693.214 814.434M739.262 781.486L693.549 727.29" stroke="#EAEBEC"/>
<path d="M1005.47 776.309C1012.32 779.95 1015.06 788.082 1011.67 794.448C1008.29 800.813 1000.01 803.094 993.167 799.453C986.32 795.812 983.585 787.68 986.97 781.314C990.354 774.949 998.626 772.668 1005.47 776.309Z" stroke="#EAEBEC"/>
<path d="M960.877 719.339C967.32 722.765 969.891 730.415 966.708 736.401C963.525 742.386 955.745 744.534 949.302 741.108C942.859 737.682 940.289 730.031 943.471 724.046C946.654 718.06 954.434 715.913 960.877 719.339Z" stroke="#EAEBEC"/>
<circle cx="834.883" cy="913.876" r="9.91463" transform="rotate(-14 834.883 913.876)" stroke="#EAEBEC"/>
<g opacity="0.39">
<ellipse cx="1841.22" cy="1133.15" rx="4.32003" ry="4.18363" transform="rotate(172 1841.22 1133.15)" fill="#C2C3C5"/>
<ellipse cx="1831.02" cy="1059.1" rx="4.32003" ry="4.18363" transform="rotate(172 1831.02 1059.1)" fill="#C2C3C5"/>
<ellipse cx="1779.13" cy="1065.57" rx="4.32003" ry="4.18363" transform="rotate(172 1779.13 1065.57)" fill="#C2C3C5"/>
<ellipse cx="1777" cy="1012.37" rx="4.32003" ry="4.18363" transform="rotate(172 1777 1012.37)" fill="#C2C3C5"/>
<ellipse cx="1789.89" cy="987.414" rx="4.32003" ry="4.18363" transform="rotate(172 1789.89 987.414)" fill="#C2C3C5"/>
<ellipse cx="1733.66" cy="947.894" rx="4.32003" ry="4.18363" transform="rotate(172 1733.66 947.894)" fill="#C2C3C5"/>
<ellipse cx="1768.39" cy="795.632" rx="4.32003" ry="4.18363" transform="rotate(172 1768.39 795.632)" fill="#C2C3C5"/>
<ellipse cx="1734.69" cy="798.464" rx="4.32003" ry="4.18363" transform="rotate(172 1734.69 798.464)" fill="#C2C3C5"/>
<ellipse cx="1711.88" cy="696.919" rx="4.32003" ry="4.18363" transform="rotate(172 1711.88 696.919)" fill="#C2C3C5"/>
<ellipse cx="1784.29" cy="700.663" rx="4.32003" ry="4.18363" transform="rotate(172 1784.29 700.663)" fill="#C2C3C5"/>
<ellipse cx="1842.3" cy="652.719" rx="4.32003" ry="4.18363" transform="rotate(172 1842.3 652.719)" fill="#C2C3C5"/>
<path d="M1841 1131.81L1831.04 1059.15M1831.04 1059.15L1781.65 1065.81C1780.94 1065.9 1780.29 1065.39 1780.23 1064.68L1775.68 1014.36C1775.58 1013.23 1776.89 1012.56 1777.75 1013.29L1831.04 1059.15ZM1789.12 987.881L1734.54 947.836C1734.13 947.538 1733.94 947.025 1734.06 946.534L1769.57 796.587C1769.77 795.741 1769.07 794.951 1768.2 795.049L1735.04 798.803C1734.41 798.876 1733.82 798.455 1733.68 797.828L1711.53 698.166M1785.28 699.696L1842.13 653.37" stroke="#C2C3C5"/>
<path d="M1841 1131.81L1831.04 1059.15M1831.04 1059.15L1781.38 1065.84C1780.82 1065.92 1780.3 1065.51 1780.25 1064.94L1775.62 1013.73C1775.54 1012.83 1776.59 1012.29 1777.27 1012.88L1831.04 1059.15ZM1789.12 987.881L1734.4 947.736C1734.08 947.498 1733.92 947.09 1734.02 946.699L1769.65 796.232C1769.81 795.559 1769.25 794.93 1768.57 795.008L1734.82 798.829C1734.31 798.887 1733.84 798.552 1733.73 798.052L1711.53 698.166M1785.28 699.696L1842.13 653.37" stroke="#C2C3C5"/>
<path d="M1841 1131.81L1831.04 1059.15M1831.04 1059.15L1781.38 1065.84C1780.82 1065.92 1780.3 1065.51 1780.25 1064.94L1775.62 1013.73C1775.54 1012.83 1776.59 1012.29 1777.27 1012.88L1831.04 1059.15ZM1789.12 987.881L1734.4 947.736C1734.08 947.498 1733.92 947.09 1734.02 946.699L1769.65 796.232C1769.81 795.559 1769.25 794.93 1768.57 795.008L1734.82 798.829C1734.31 798.887 1733.84 798.552 1733.73 798.052L1711.53 698.166M1785.28 699.696L1842.13 653.37" stroke="#C2C3C5"/>
</g>
<g opacity="0.39">
<ellipse cx="311.713" cy="865.594" rx="4.32003" ry="4.18363" transform="rotate(148 311.713 865.594)" fill="#C2C3C5"/>
<ellipse cx="272.276" cy="802.094" rx="4.32003" ry="4.18363" transform="rotate(148 272.276 802.094)" fill="#C2C3C5"/>
<ellipse cx="227.502" cy="829.107" rx="4.32003" ry="4.18363" transform="rotate(148 227.502 829.107)" fill="#C2C3C5"/>
<ellipse cx="203.924" cy="781.379" rx="4.32003" ry="4.18363" transform="rotate(148 203.924 781.379)" fill="#C2C3C5"/>
<ellipse cx="205.541" cy="753.337" rx="4.32003" ry="4.18363" transform="rotate(148 205.541 753.337)" fill="#C2C3C5"/>
<ellipse cx="138.104" cy="740.102" rx="4.32003" ry="4.18363" transform="rotate(148 138.104 740.102)" fill="#C2C3C5"/>
<ellipse cx="107.901" cy="586.878" rx="4.32003" ry="4.18363" transform="rotate(148 107.901 586.878)" fill="#C2C3C5"/>
<ellipse cx="78.264" cy="603.173" rx="4.32003" ry="4.18363" transform="rotate(148 78.264 603.173)" fill="#C2C3C5"/>
<ellipse cx="16.1233" cy="519.685" rx="4.32003" ry="4.18363" transform="rotate(148 16.1233 519.685)" fill="#C2C3C5"/>
<ellipse cx="83.7991" cy="493.652" rx="4.32003" ry="4.18363" transform="rotate(148 83.7991 493.652)" fill="#C2C3C5"/>
<ellipse cx="117.287" cy="426.261" rx="4.32003" ry="4.18363" transform="rotate(148 117.287 426.261)" fill="#C2C3C5"/>
<path d="M310.972 864.462L272.312 802.133M272.312 802.133L229.9 828.303C229.291 828.679 228.492 828.471 228.144 827.846L203.522 783.73C202.972 782.745 203.899 781.59 204.98 781.915L272.312 802.133ZM205.03 754.075L138.878 739.694C138.385 739.587 138.004 739.195 137.911 738.699L109.362 587.272C109.201 586.417 108.241 585.981 107.491 586.422L78.7256 603.338C78.1719 603.664 77.4618 603.519 77.0795 603.003L16.3111 520.965M84.3054 492.367L117.401 426.923" stroke="#C2C3C5"/>
<path d="M310.972 864.462L272.312 802.133M272.312 802.133L229.672 828.444C229.188 828.743 228.552 828.577 228.274 828.08L203.214 783.178C202.776 782.394 203.514 781.475 204.375 781.733L272.312 802.133ZM205.03 754.075L138.712 739.658C138.32 739.572 138.017 739.26 137.942 738.866L109.295 586.914C109.167 586.233 108.402 585.886 107.805 586.237L78.5271 603.455C78.0863 603.714 77.521 603.599 77.2166 603.188L16.3111 520.965M84.3054 492.367L117.401 426.923" stroke="#C2C3C5"/>
<path d="M310.972 864.462L272.312 802.133M272.312 802.133L229.672 828.444C229.188 828.743 228.552 828.577 228.274 828.08L203.214 783.178C202.776 782.394 203.514 781.475 204.375 781.733L272.312 802.133ZM205.03 754.075L138.712 739.658C138.32 739.572 138.017 739.26 137.942 738.866L109.295 586.914C109.167 586.233 108.402 585.886 107.805 586.237L78.5271 603.455C78.0863 603.714 77.521 603.599 77.2166 603.188L16.3111 520.965M84.3054 492.367L117.401 426.923" stroke="#C2C3C5"/>
</g>
<g opacity="0.39">
<ellipse cx="187.972" cy="7.28102" rx="4.32003" ry="4.18363" transform="rotate(-4 187.972 7.28102)" fill="#C2C3C5"/>
<ellipse cx="192.98" cy="81.8621" rx="4.32003" ry="4.18363" transform="rotate(-4 192.98 81.8621)" fill="#C2C3C5"/>
<ellipse cx="245.199" cy="79.0322" rx="4.32003" ry="4.18363" transform="rotate(-4 245.199 79.0322)" fill="#C2C3C5"/>
<ellipse cx="243.609" cy="132.243" rx="4.32003" ry="4.18363" transform="rotate(-4 243.609 132.243)" fill="#C2C3C5"/>
<ellipse cx="229.015" cy="156.243" rx="4.32003" ry="4.18363" transform="rotate(-4 229.015 156.243)" fill="#C2C3C5"/>
<ellipse cx="282.344" cy="199.587" rx="4.32003" ry="4.18363" transform="rotate(-4 282.344 199.587)" fill="#C2C3C5"/>
<ellipse cx="237.078" cy="349.056" rx="4.32003" ry="4.18363" transform="rotate(-4 237.078 349.056)" fill="#C2C3C5"/>
<ellipse cx="270.898" cy="348.584" rx="4.32003" ry="4.18363" transform="rotate(-4 270.898 348.584)" fill="#C2C3C5"/>
<ellipse cx="286.57" cy="451.471" rx="4.32003" ry="4.18363" transform="rotate(-4 286.57 451.471)" fill="#C2C3C5"/>
<ellipse cx="214.59" cy="442.685" rx="4.32003" ry="4.18363" transform="rotate(-4 214.59 442.685)" fill="#C2C3C5"/>
<ellipse cx="153.383" cy="486.465" rx="4.32003" ry="4.18363" transform="rotate(-4 153.383 486.465)" fill="#C2C3C5"/>
<path d="M188.093 8.62828L192.966 81.8116M192.966 81.8116L242.7 78.6156C243.414 78.5697 244.022 79.1284 244.036 79.8436L245.065 130.355C245.088 131.483 243.727 132.067 242.925 131.274L192.966 81.8116ZM229.811 155.831L281.468 199.585C281.853 199.911 282.005 200.436 281.855 200.918L235.971 348.023C235.712 348.853 236.355 349.689 237.224 349.652L270.564 348.22C271.206 348.192 271.765 348.653 271.861 349.289L287.001 450.253M213.54 443.582L153.594 485.828" stroke="#C2C3C5"/>
<path d="M188.093 8.62828L192.966 81.8116M192.966 81.8116L242.967 78.5984C243.535 78.5619 244.019 79.0067 244.031 79.576L245.078 130.987C245.096 131.885 244.013 132.35 243.374 131.718L192.966 81.8116ZM229.811 155.831L281.597 199.695C281.904 199.955 282.025 200.372 281.906 200.756L235.863 348.37C235.656 349.032 236.168 349.697 236.86 349.667L270.795 348.21C271.305 348.188 271.751 348.555 271.826 349.061L287.001 450.253M213.54 443.582L153.594 485.828" stroke="#C2C3C5"/>
<path d="M188.093 8.62828L192.966 81.8116M192.966 81.8116L242.967 78.5984C243.535 78.5619 244.019 79.0067 244.031 79.576L245.078 130.987C245.096 131.885 244.013 132.35 243.374 131.718L192.966 81.8116ZM229.811 155.831L281.597 199.695C281.904 199.955 282.025 200.372 281.906 200.756L235.863 348.37C235.656 349.032 236.168 349.697 236.86 349.667L270.795 348.21C271.305 348.188 271.751 348.555 271.826 349.061L287.001 450.253M213.54 443.582L153.594 485.828" stroke="#C2C3C5"/>
</g>
<ellipse cx="521.531" cy="1296.72" rx="7.28559" ry="7.75763" transform="rotate(-13 521.531 1296.72)" fill="#EAEBEC"/>
<ellipse cx="413.137" cy="1239.05" rx="7.28559" ry="7.75763" transform="rotate(-13 413.137 1239.05)" fill="#EAEBEC"/>
<ellipse cx="344.405" cy="1082.13" rx="10.1386" ry="10.7955" transform="rotate(-13 344.405 1082.13)" fill="#EAEBEC"/>
<ellipse cx="281.364" cy="1140.03" rx="6.19643" ry="6.279" transform="rotate(-13 281.364 1140.03)" fill="#EAEBEC"/>
<ellipse cx="344.724" cy="1205.65" rx="6.19643" ry="6.279" transform="rotate(-13 344.724 1205.65)" fill="#EAEBEC"/>
<ellipse cx="368.145" cy="1282.77" rx="6.19643" ry="6.279" transform="rotate(-13 368.145 1282.77)" fill="#EAEBEC"/>
<ellipse cx="536.719" cy="1220.83" rx="7.28559" ry="7.75763" transform="rotate(-13 536.719 1220.83)" fill="#EAEBEC"/>
<circle cx="466.936" cy="1336.63" r="3.73081" transform="rotate(35 466.936 1336.63)" fill="#EAEBEC"/>
<circle cx="408.868" cy="1280.8" r="7.46162" transform="rotate(35 408.868 1280.8)" fill="#EAEBEC"/>
<circle cx="380.743" cy="1318.8" r="7.46162" transform="rotate(35 380.743 1318.8)" fill="#EAEBEC"/>
<circle cx="367.291" cy="1348.85" r="3.73081" transform="rotate(35 367.291 1348.85)" fill="#EAEBEC"/>
<circle cx="325.217" cy="1348.23" r="3.73081" transform="rotate(35 325.217 1348.23)" fill="#EAEBEC"/>
<circle cx="337.959" cy="1304.02" r="3.73081" transform="rotate(35 337.959 1304.02)" fill="#EAEBEC"/>
<circle cx="384.197" cy="1108.74" r="3.73081" transform="rotate(35 384.197 1108.74)" fill="#EAEBEC"/>
<circle cx="353.748" cy="1006.96" r="3.73081" transform="rotate(35 353.748 1006.96)" fill="#EAEBEC"/>
<circle cx="284.057" cy="1067.47" r="3.73081" transform="rotate(35 284.057 1067.47)" fill="#EAEBEC"/>
<circle cx="346.104" cy="1324.9" r="3.73081" transform="rotate(35 346.104 1324.9)" fill="#EAEBEC"/>
<circle cx="303.784" cy="1252" r="5.59622" transform="rotate(35 303.784 1252)" fill="#EAEBEC"/>
<circle cx="204.5" cy="1256.12" r="6.21802" transform="rotate(35 204.5 1256.12)" fill="#EAEBEC"/>
<circle cx="214.187" cy="1194.58" r="6.21802" transform="rotate(35 214.187 1194.58)" fill="#EAEBEC"/>
<path d="M414.986 1239.54L536.684 1220.76L522.869 1296.86L414.986 1239.54ZM414.986 1239.54L408.816 1283.04M466.779 1335.77L522.156 1297.88L408.816 1283.04M408.816 1283.04L381.609 1318.64M408.816 1283.04L344.49 1206.88M381.609 1318.64L344.49 1206.88M381.609 1318.64L345.237 1325.06M344.49 1206.88L303.426 1252.51M344.49 1206.88L280.62 1140.9M345.237 1325.06L337.446 1303.66M345.237 1325.06L367.495 1347.47M345.237 1325.06L324.705 1347.88M303.426 1252.51L206.079 1254.94L214.34 1195.45L303.426 1252.51ZM303.426 1252.51L280.62 1140.9M280.62 1140.9L342.877 1081.26M342.877 1081.26L386.885 1110.55M342.877 1081.26L283.687 1067.14M342.877 1081.26L354.604 1005.97" stroke="#EAEBEC"/>
<path d="M534.807 1293.52C536.686 1301.65 532.008 1309.63 524.437 1311.38C516.866 1313.12 509.165 1308.01 507.286 1299.87C505.408 1291.73 510.086 1283.76 517.657 1282.01C525.228 1280.26 532.928 1285.38 534.807 1293.52Z" stroke="#EAEBEC"/>
<path d="M549.574 1217.18C551.342 1224.84 546.939 1232.34 539.818 1233.98C532.697 1235.62 525.452 1230.81 523.684 1223.15C521.915 1215.49 526.318 1207.99 533.439 1206.35C540.56 1204.71 547.805 1209.52 549.574 1217.18Z" stroke="#EAEBEC"/>
<circle cx="302.917" cy="1252.15" r="10.6924" transform="rotate(35 302.917 1252.15)" stroke="#EAEBEC"/>
<ellipse cx="1146.48" cy="1212.14" rx="6.66142" ry="7.09301" transform="rotate(-62 1146.48 1212.14)" fill="#EAEBEC"/>
<ellipse cx="1041.66" cy="1252.34" rx="6.66142" ry="7.09301" transform="rotate(-62 1041.66 1252.34)" fill="#EAEBEC"/>
<ellipse cx="892.145" cy="1205.64" rx="9.27" ry="9.8706" transform="rotate(-62 892.145 1205.64)" fill="#EAEBEC"/>
<ellipse cx="894.284" cy="1283.87" rx="5.66557" ry="5.74107" transform="rotate(-62 894.284 1283.87)" fill="#EAEBEC"/>
<ellipse cx="977.573" cy="1279.51" rx="5.66557" ry="5.74107" transform="rotate(-62 977.573 1279.51)" fill="#EAEBEC"/>
<ellipse cx="1044.84" cy="1309.62" rx="5.66557" ry="5.74107" transform="rotate(-62 1044.84 1309.62)" fill="#EAEBEC"/>
<ellipse cx="1103.22" cy="1156.13" rx="6.66142" ry="7.09301" transform="rotate(-62 1103.22 1156.13)" fill="#EAEBEC"/>
<circle cx="1141.27" cy="1273.76" r="3.41118" transform="rotate(-14 1141.27 1273.76)" fill="#EAEBEC"/>
<circle cx="1067.91" cy="1280.33" r="6.82237" transform="rotate(-14 1067.91 1280.33)" fill="#EAEBEC"/>
<circle cx="1077.26" cy="1322.53" r="6.82237" transform="rotate(-14 1077.26 1322.53)" fill="#EAEBEC"/>
<circle cx="1089.93" cy="1349.84" r="3.41118" transform="rotate(-14 1089.93 1349.84)" fill="#EAEBEC"/>
<circle cx="1064.26" cy="1378.51" r="3.41118" transform="rotate(-14 1064.26 1378.51)" fill="#EAEBEC"/>
<circle cx="1041.4" cy="1343.19" r="3.41118" transform="rotate(-14 1041.4 1343.19)" fill="#EAEBEC"/>
<circle cx="934.381" cy="1194.15" r="3.41118" transform="rotate(-14 934.381 1194.15)" fill="#EAEBEC"/>
<circle cx="845.881" cy="1154.11" r="3.41118" transform="rotate(-14 845.881 1154.11)" fill="#EAEBEC"/>
<circle cx="845.83" cy="1238.49" r="3.41118" transform="rotate(-14 845.83 1238.49)" fill="#EAEBEC"/>
<circle cx="1060.69" cy="1350.1" r="3.41118" transform="rotate(-14 1060.69 1350.1)" fill="#EAEBEC"/>
<circle cx="985.003" cy="1335.57" r="5.11678" transform="rotate(-14 985.003 1335.57)" fill="#EAEBEC"/>
<circle cx="928.282" cy="1406.55" r="5.68531" transform="rotate(-14 928.282 1406.55)" fill="#EAEBEC"/>
<circle cx="891.634" cy="1362.95" r="5.68531" transform="rotate(-14 891.634 1362.95)" fill="#EAEBEC"/>
<path d="M1043.11 1251.36L1103.15 1156.12L1147.38 1211.3L1043.11 1251.36ZM1043.11 1251.36L1069.42 1281.71M1140.58 1273.35L1147.65 1212.4L1069.42 1281.71M1069.42 1281.71L1077.67 1321.84M1069.42 1281.71L978.28 1280.41M1077.67 1321.84L978.28 1280.41M1077.67 1321.84L1060.28 1350.79M978.28 1280.41L985.139 1336.12M978.28 1280.41L894.441 1284.91M1060.28 1350.79L1040.84 1343.33M1060.28 1350.79L1089.1 1348.88M1060.28 1350.79L1063.71 1378.64M985.139 1336.12L928.424 1404.76L892.323 1363.37L985.139 1336.12ZM985.139 1336.12L894.441 1284.91M894.441 1284.91L890.63 1206.17M890.63 1206.17L937.244 1193.38M890.63 1206.17L845.382 1238.55M890.63 1206.17L845.712 1152.92" stroke="#EAEBEC"/>
<path d="M1152.21 1201.09C1158.93 1204.67 1161.62 1212.66 1158.29 1218.91C1154.97 1225.16 1146.85 1227.4 1140.12 1223.82C1133.4 1220.24 1130.72 1212.26 1134.04 1206.01C1137.36 1199.76 1145.48 1197.52 1152.21 1201.09Z" stroke="#EAEBEC"/>
<path d="M1108.39 1145.11C1114.71 1148.48 1117.24 1155.99 1114.11 1161.87C1110.99 1167.74 1103.35 1169.85 1097.02 1166.49C1090.69 1163.12 1088.17 1155.61 1091.3 1149.74C1094.42 1143.86 1102.06 1141.75 1108.39 1145.11Z" stroke="#EAEBEC"/>
<circle cx="984.585" cy="1336.26" r="9.73355" transform="rotate(-14 984.585 1336.26)" stroke="#EAEBEC"/>
<ellipse cx="1759.56" cy="605.992" rx="9.00989" ry="9.59364" transform="rotate(95 1759.56 605.992)" fill="#EAEBEC"/>
<ellipse cx="1868.82" cy="500.544" rx="9.00989" ry="9.59364" transform="rotate(95 1868.82 500.544)" fill="#EAEBEC"/>
<ellipse cx="2079.64" cy="479.67" rx="12.5381" ry="13.3505" transform="rotate(95 2079.64 479.67)" fill="#EAEBEC"/>
<ellipse cx="2035.64" cy="383.4" rx="7.66296" ry="7.76507" transform="rotate(95 2035.64 383.4)" fill="#EAEBEC"/>
<ellipse cx="1934.24" cy="432.844" rx="7.66296" ry="7.76507" transform="rotate(95 1934.24 432.844)" fill="#EAEBEC"/>
<ellipse cx="1834.58" cy="430.917" rx="7.66296" ry="7.76507" transform="rotate(95 1834.58 430.917)" fill="#EAEBEC"/>
<ellipse cx="1843.02" cy="652.857" rx="9.00989" ry="9.59364" transform="rotate(95 1843.02 652.857)" fill="#EAEBEC"/>
<circle cx="1733.48" cy="526.523" r="4.61379" transform="rotate(143 1733.48 526.523)" fill="#EAEBEC"/>
<circle cx="1821.34" cy="479.567" r="9.22758" transform="rotate(143 1821.34 479.567)" fill="#EAEBEC"/>
<circle cx="1787.4" cy="431.966" r="9.22758" transform="rotate(143 1787.4 431.966)" fill="#EAEBEC"/>
<circle cx="1757.19" cy="404.66" r="4.61379" transform="rotate(143 1757.19 404.66)" fill="#EAEBEC"/>
<circle cx="1774" cy="355.408" r="4.61379" transform="rotate(143 1774 355.408)" fill="#EAEBEC"/>
<circle cx="1821.13" cy="387.293" r="4.61379" transform="rotate(143 1821.13 387.293)" fill="#EAEBEC"/>
<circle cx="2033.13" cy="516.301" r="4.61379" transform="rotate(143 2033.13 516.301)" fill="#EAEBEC"/>
<circle cx="2164.48" cy="519.386" r="4.61379" transform="rotate(143 2164.48 519.386)" fill="#EAEBEC"/>
<circle cx="2119.94" cy="414.294" r="4.61379" transform="rotate(143 2119.94 414.294)" fill="#EAEBEC"/>
<circle cx="1793.45" cy="388.897" r="4.61379" transform="rotate(143 1793.45 388.897)" fill="#EAEBEC"/>
<circle cx="1895.37" cy="366.979" r="6.92069" transform="rotate(143 1895.37 366.979)" fill="#EAEBEC"/>
<circle cx="1928.47" cy="248.633" r="7.68965" transform="rotate(143 1928.47 248.633)" fill="#EAEBEC"/>
<circle cx="1997.14" cy="283.544" r="7.68965" transform="rotate(143 1997.14 283.544)" fill="#EAEBEC"/>
<path d="M1867.53 502.531L1843.11 652.843L1758.88 607.511L1867.53 502.531ZM1867.53 502.531L1818.72 478.65M1734.55 526.671L1757.96 606.283L1818.72 478.65M1818.72 478.65L1787.25 433.045M1818.72 478.65L1932.89 432.099M1787.25 433.045L1932.89 432.099M1787.25 433.045L1793.6 387.816M1932.89 432.099L1894.9 366.362M1932.89 432.099L2034.89 382.193M1793.6 387.816L1821.75 386.829M1793.6 387.816L1758.73 405.427M1793.6 387.816L1774.61 354.947M1894.9 366.362L1929.25 250.939L1996.07 283.392L1894.9 366.362ZM1894.9 366.362L2034.89 382.193M2034.89 382.193L2081.25 478.208M2081.25 478.208L2029.97 518.772M2081.25 478.208L2120.47 413.987M2081.25 478.208L2165.32 520.772" stroke="#EAEBEC"/>
<path d="M1758.25 622.948C1747.9 622.042 1740.25 613.442 1741.09 603.797C1741.94 594.152 1750.96 587.01 1761.31 587.915C1771.66 588.821 1779.3 597.421 1778.46 607.066C1777.62 616.711 1768.59 623.853 1758.25 622.948Z" stroke="#EAEBEC"/>
<path d="M1842.39 669.485C1832.65 668.633 1825.45 660.537 1826.25 651.461C1827.04 642.386 1835.53 635.663 1845.28 636.515C1855.02 637.367 1862.21 645.463 1861.42 654.538C1860.62 663.614 1852.13 670.337 1842.39 669.485Z" stroke="#EAEBEC"/>
<circle cx="1895.52" cy="365.901" r="13.3414" transform="rotate(143 1895.52 365.901)" stroke="#EAEBEC"/>
<ellipse cx="1783.3" cy="1390.66" rx="6.47275" ry="6.89212" transform="rotate(3 1783.3 1390.66)" fill="#EAEBEC"/>
<ellipse cx="1704.85" cy="1314.86" rx="6.47275" ry="6.89212" transform="rotate(3 1704.85 1314.86)" fill="#EAEBEC"/>
<ellipse cx="1684.58" cy="1164.02" rx="9.00744" ry="9.59103" transform="rotate(3 1684.58 1164.02)" fill="#EAEBEC"/>
<ellipse cx="1616.56" cy="1198.03" rx="5.5051" ry="5.57846" transform="rotate(3 1616.56 1198.03)" fill="#EAEBEC"/>
<ellipse cx="1654.6" cy="1269.59" rx="5.5051" ry="5.57846" transform="rotate(3 1654.6 1269.59)" fill="#EAEBEC"/>
<ellipse cx="1655.72" cy="1341.19" rx="5.5051" ry="5.57846" transform="rotate(3 1655.72 1341.19)" fill="#EAEBEC"/>
<ellipse cx="1814.86" cy="1329.57" rx="6.47275" ry="6.89212" transform="rotate(3 1814.86 1329.57)" fill="#EAEBEC"/>
<circle cx="1726.9" cy="1411.38" r="3.31457" transform="rotate(51 1726.9 1411.38)" fill="#EAEBEC"/>
<circle cx="1690.98" cy="1349.48" r="6.62914" transform="rotate(51 1690.98 1349.48)" fill="#EAEBEC"/>
<circle cx="1657.65" cy="1375.04" r="6.62914" transform="rotate(51 1657.65 1375.04)" fill="#EAEBEC"/>
<circle cx="1638.81" cy="1397.41" r="3.31457" transform="rotate(51 1638.81 1397.41)" fill="#EAEBEC"/>
<circle cx="1603.03" cy="1386.58" r="3.31457" transform="rotate(51 1603.03 1386.58)" fill="#EAEBEC"/>
<circle cx="1624.74" cy="1351.94" r="3.31457" transform="rotate(51 1624.74 1351.94)" fill="#EAEBEC"/>
<circle cx="1712.05" cy="1196.5" r="3.31457" transform="rotate(51 1712.05 1196.5)" fill="#EAEBEC"/>
<circle cx="1710.97" cy="1102.12" r="3.31457" transform="rotate(51 1710.97 1102.12)" fill="#EAEBEC"/>
<circle cx="1636.63" cy="1136.72" r="3.31457" transform="rotate(51 1636.63 1136.72)" fill="#EAEBEC"/>
<circle cx="1626.58" cy="1371.77" r="3.31457" transform="rotate(51 1626.58 1371.77)" fill="#EAEBEC"/>
<circle cx="1608.29" cy="1299.15" r="4.97185" transform="rotate(51 1608.29 1299.15)" fill="#EAEBEC"/>
<circle cx="1522.49" cy="1278.35" r="5.52428" transform="rotate(51 1522.49 1278.35)" fill="#EAEBEC"/>
<circle cx="1545.84" cy="1228.17" r="5.52428" transform="rotate(51 1545.84 1228.17)" fill="#EAEBEC"/>
<path d="M1706.31 1315.74L1814.84 1329.5L1784.41 1391.11L1706.31 1315.74ZM1706.31 1315.74L1690.39 1351.38M1726.98 1410.6L1783.55 1391.81L1690.39 1351.38M1690.39 1351.38L1658.44 1375.12M1690.39 1351.38L1654.1 1270.58M1658.44 1375.12L1654.1 1270.58M1658.44 1375.12L1625.8 1371.69M1654.1 1270.58L1607.86 1299.5M1654.1 1270.58L1615.72 1198.59M1625.8 1371.69L1624.39 1351.51M1625.8 1371.69L1639.32 1396.29M1625.8 1371.69L1602.68 1386.15M1607.86 1299.5L1524.13 1277.74L1545.75 1228.95L1607.86 1299.5ZM1607.86 1299.5L1615.72 1198.59M1615.72 1198.59L1683.49 1162.9M1683.49 1162.9L1713.9 1198.7M1683.49 1162.9L1636.4 1136.35M1683.49 1162.9L1711.94 1101.48" stroke="#EAEBEC"/>
<path d="M1795.36 1391.17C1794.98 1398.56 1789.05 1404.19 1782.19 1403.83C1775.33 1403.48 1770.03 1397.25 1770.42 1389.87C1770.8 1382.48 1776.73 1376.85 1783.59 1377.21C1790.45 1377.57 1795.75 1383.79 1795.36 1391.17Z" stroke="#EAEBEC"/>
<path d="M1826.67 1329.59C1826.3 1336.54 1820.73 1341.84 1814.28 1341.5C1807.83 1341.17 1802.84 1335.31 1803.2 1328.37C1803.57 1321.42 1809.14 1316.12 1815.59 1316.46C1822.04 1316.79 1827.03 1322.65 1826.67 1329.59Z" stroke="#EAEBEC"/>
<circle cx="1607.51" cy="1299.07" r="9.44371" transform="rotate(51 1607.51 1299.07)" stroke="#EAEBEC"/>
</svg>
