<svg width="2207" height="1695" viewBox="0 0 2207 1695" fill="none" xmlns="http://www.w3.org/2000/svg">
<ellipse cx="1986.11" cy="1524.57" rx="10.6647" ry="11.3557" transform="rotate(3 1986.11 1524.57)" fill="#EAEBEC"/>
<ellipse cx="1856.86" cy="1399.67" rx="10.6647" ry="11.3557" transform="rotate(3 1856.86 1399.67)" fill="#EAEBEC"/>
<ellipse cx="1823.46" cy="1151.14" rx="14.841" ry="15.8025" transform="rotate(3 1823.46 1151.14)" fill="#EAEBEC"/>
<ellipse cx="1711.4" cy="1207.17" rx="9.07041" ry="9.19127" transform="rotate(3 1711.4 1207.17)" fill="#EAEBEC"/>
<ellipse cx="1774.07" cy="1325.07" rx="9.07041" ry="9.19127" transform="rotate(3 1774.07 1325.07)" fill="#EAEBEC"/>
<ellipse cx="1775.91" cy="1443.04" rx="9.07041" ry="9.19127" transform="rotate(3 1775.91 1443.04)" fill="#EAEBEC"/>
<ellipse cx="2038.11" cy="1423.9" rx="10.6647" ry="11.3557" transform="rotate(3 2038.11 1423.9)" fill="#EAEBEC"/>
<circle cx="1893.18" cy="1558.7" r="5.4612" transform="rotate(51 1893.18 1558.7)" fill="#EAEBEC"/>
<circle cx="1834.01" cy="1456.7" r="10.9224" transform="rotate(51 1834.01 1456.7)" fill="#EAEBEC"/>
<circle cx="1779.1" cy="1498.82" r="10.9224" transform="rotate(51 1779.1 1498.82)" fill="#EAEBEC"/>
<circle cx="1748.05" cy="1535.68" r="5.4612" transform="rotate(51 1748.05 1535.68)" fill="#EAEBEC"/>
<circle cx="1689.09" cy="1517.84" r="5.4612" transform="rotate(51 1689.09 1517.84)" fill="#EAEBEC"/>
<circle cx="1724.86" cy="1460.76" r="5.4612" transform="rotate(51 1724.86 1460.76)" fill="#EAEBEC"/>
<circle cx="1868.71" cy="1204.65" r="5.4612" transform="rotate(51 1868.71 1204.65)" fill="#EAEBEC"/>
<circle cx="1866.94" cy="1049.14" r="5.4612" transform="rotate(51 1866.94 1049.14)" fill="#EAEBEC"/>
<circle cx="1744.46" cy="1106.16" r="5.4612" transform="rotate(51 1744.46 1106.16)" fill="#EAEBEC"/>
<circle cx="1727.9" cy="1493.43" r="5.4612" transform="rotate(51 1727.9 1493.43)" fill="#EAEBEC"/>
<circle cx="1697.77" cy="1373.78" r="8.1918" transform="rotate(51 1697.77 1373.78)" fill="#EAEBEC"/>
<circle cx="1556.4" cy="1339.51" r="9.102" transform="rotate(51 1556.4 1339.51)" fill="#EAEBEC"/>
<circle cx="1594.86" cy="1256.83" r="9.102" transform="rotate(51 1594.86 1256.83)" fill="#EAEBEC"/>
<path d="M1859.27 1401.11L2038.09 1423.79L1987.94 1525.3L1859.27 1401.11ZM1859.27 1401.11L1833.03 1459.83M1893.31 1557.42L1986.52 1526.45L1833.03 1459.83M1833.03 1459.83L1780.38 1498.95M1833.03 1459.83L1773.25 1326.71M1780.38 1498.95L1773.25 1326.71M1780.38 1498.95L1726.62 1493.3M1773.25 1326.71L1697.05 1374.36M1773.25 1326.71L1710 1208.1M1726.62 1493.3L1724.29 1460.05M1726.62 1493.3L1748.89 1533.83M1726.62 1493.3L1688.52 1517.13M1697.05 1374.36L1559.1 1338.5L1594.72 1258.11L1697.05 1374.36ZM1697.05 1374.36L1710 1208.1M1710 1208.1L1821.66 1149.3M1821.66 1149.3L1871.77 1208.28M1821.66 1149.3L1744.07 1105.55M1821.66 1149.3L1868.54 1048.09" stroke="#EAEBEC"/>
<path d="M2006.32 1525.42C2005.67 1537.75 1995.78 1547.19 1984.28 1546.59C1972.78 1545.99 1963.92 1535.56 1964.57 1523.23C1965.21 1510.91 1975.11 1501.46 1986.61 1502.07C1998.11 1502.67 2006.97 1513.1 2006.32 1525.42Z" stroke="#EAEBEC"/>
<path d="M2057.89 1423.96C2057.29 1435.57 2047.97 1444.46 2037.14 1443.89C2026.32 1443.32 2017.98 1433.51 2018.59 1421.9C2019.2 1410.3 2028.52 1401.41 2039.34 1401.97C2050.16 1402.54 2058.5 1412.36 2057.89 1423.96Z" stroke="#EAEBEC"/>
<circle cx="1696.48" cy="1373.65" r="15.8836" transform="rotate(51 1696.48 1373.65)" stroke="#EAEBEC"/>
<g opacity="0.39">
<ellipse cx="1854.33" cy="1133.15" rx="4.32003" ry="4.18363" transform="rotate(172 1854.33 1133.15)" fill="#C2C3C5"/>
<ellipse cx="1844.13" cy="1059.1" rx="4.32003" ry="4.18363" transform="rotate(172 1844.13 1059.1)" fill="#C2C3C5"/>
<ellipse cx="1792.24" cy="1065.57" rx="4.32003" ry="4.18363" transform="rotate(172 1792.24 1065.57)" fill="#C2C3C5"/>
<ellipse cx="1790.11" cy="1012.37" rx="4.32003" ry="4.18363" transform="rotate(172 1790.11 1012.37)" fill="#C2C3C5"/>
<ellipse cx="1803" cy="987.415" rx="4.32003" ry="4.18363" transform="rotate(172 1803 987.415)" fill="#C2C3C5"/>
<ellipse cx="1746.77" cy="947.894" rx="4.32003" ry="4.18363" transform="rotate(172 1746.77 947.894)" fill="#C2C3C5"/>
<ellipse cx="1781.5" cy="795.632" rx="4.32003" ry="4.18363" transform="rotate(172 1781.5 795.632)" fill="#C2C3C5"/>
<ellipse cx="1747.8" cy="798.464" rx="4.32003" ry="4.18363" transform="rotate(172 1747.8 798.464)" fill="#C2C3C5"/>
<ellipse cx="1724.99" cy="696.92" rx="4.32003" ry="4.18363" transform="rotate(172 1724.99 696.92)" fill="#C2C3C5"/>
<ellipse cx="1797.4" cy="700.663" rx="4.32003" ry="4.18363" transform="rotate(172 1797.4 700.663)" fill="#C2C3C5"/>
<ellipse cx="1855.41" cy="652.719" rx="4.32003" ry="4.18363" transform="rotate(172 1855.41 652.719)" fill="#C2C3C5"/>
<path d="M1854.11 1131.81L1844.15 1059.15M1844.15 1059.15L1794.76 1065.81C1794.05 1065.9 1793.4 1065.39 1793.34 1064.68L1788.79 1014.36C1788.69 1013.23 1790 1012.56 1790.86 1013.29L1844.15 1059.15ZM1802.23 987.881L1747.65 947.837C1747.24 947.538 1747.05 947.025 1747.17 946.534L1782.68 796.587C1782.88 795.741 1782.18 794.952 1781.31 795.05L1748.15 798.803C1747.52 798.876 1746.93 798.455 1746.79 797.828L1724.64 698.166M1798.39 699.696L1855.24 653.371" stroke="#C2C3C5"/>
<path d="M1854.11 1131.81L1844.15 1059.15M1844.15 1059.15L1794.49 1065.84C1793.93 1065.92 1793.41 1065.51 1793.36 1064.94L1788.73 1013.73C1788.65 1012.83 1789.7 1012.3 1790.38 1012.88L1844.15 1059.15ZM1802.23 987.881L1747.51 947.736C1747.18 947.499 1747.03 947.09 1747.13 946.7L1782.76 796.233C1782.92 795.559 1782.36 794.931 1781.67 795.009L1747.92 798.829C1747.42 798.887 1746.95 798.552 1746.84 798.053L1724.64 698.166M1798.39 699.696L1855.24 653.371" stroke="#C2C3C5"/>
<path d="M1854.11 1131.81L1844.15 1059.15M1844.15 1059.15L1794.49 1065.84C1793.93 1065.92 1793.41 1065.51 1793.36 1064.94L1788.73 1013.73C1788.65 1012.83 1789.7 1012.3 1790.38 1012.88L1844.15 1059.15ZM1802.23 987.881L1747.51 947.736C1747.18 947.499 1747.03 947.09 1747.13 946.7L1782.76 796.233C1782.92 795.559 1782.36 794.931 1781.67 795.009L1747.92 798.829C1747.42 798.887 1746.95 798.552 1746.84 798.053L1724.64 698.166M1798.39 699.696L1855.24 653.371" stroke="#C2C3C5"/>
</g>
<g opacity="0.39">
<ellipse cx="324.823" cy="865.594" rx="4.32003" ry="4.18363" transform="rotate(148 324.823 865.594)" fill="#C2C3C5"/>
<ellipse cx="285.385" cy="802.094" rx="4.32003" ry="4.18363" transform="rotate(148 285.385 802.094)" fill="#C2C3C5"/>
<ellipse cx="240.612" cy="829.107" rx="4.32003" ry="4.18363" transform="rotate(148 240.612 829.107)" fill="#C2C3C5"/>
<ellipse cx="217.033" cy="781.379" rx="4.32003" ry="4.18363" transform="rotate(148 217.033 781.379)" fill="#C2C3C5"/>
<ellipse cx="218.651" cy="753.337" rx="4.32003" ry="4.18363" transform="rotate(148 218.651 753.337)" fill="#C2C3C5"/>
<ellipse cx="151.213" cy="740.102" rx="4.32003" ry="4.18363" transform="rotate(148 151.213 740.102)" fill="#C2C3C5"/>
<ellipse cx="121.01" cy="586.878" rx="4.32003" ry="4.18363" transform="rotate(148 121.01 586.878)" fill="#C2C3C5"/>
<ellipse cx="91.3733" cy="603.173" rx="4.32003" ry="4.18363" transform="rotate(148 91.3733 603.173)" fill="#C2C3C5"/>
<ellipse cx="29.2327" cy="519.685" rx="4.32003" ry="4.18363" transform="rotate(148 29.2327 519.685)" fill="#C2C3C5"/>
<ellipse cx="96.9085" cy="493.652" rx="4.32003" ry="4.18363" transform="rotate(148 96.9085 493.652)" fill="#C2C3C5"/>
<ellipse cx="130.397" cy="426.261" rx="4.32003" ry="4.18363" transform="rotate(148 130.397 426.261)" fill="#C2C3C5"/>
<path d="M324.081 864.462L285.421 802.133M285.421 802.133L243.01 828.303C242.401 828.679 241.602 828.471 241.253 827.846L216.631 783.73C216.081 782.745 217.009 781.59 218.089 781.915L285.421 802.133ZM218.14 754.075L151.988 739.694C151.495 739.587 151.114 739.195 151.02 738.699L122.472 587.272C122.311 586.417 121.35 585.981 120.601 586.422L91.835 603.338C91.2813 603.664 90.5712 603.519 90.1888 603.003L29.4205 520.965M97.4148 492.367L130.511 426.923" stroke="#C2C3C5"/>
<path d="M324.081 864.462L285.421 802.133M285.421 802.133L242.782 828.444C242.297 828.743 241.661 828.577 241.383 828.08L216.323 783.178C215.885 782.394 216.624 781.475 217.484 781.733L285.421 802.133ZM218.14 754.075L151.822 739.658C151.429 739.572 151.126 739.261 151.052 738.866L122.404 586.914C122.276 586.233 121.512 585.886 120.915 586.237L91.6364 603.455C91.1957 603.714 90.6303 603.599 90.326 603.188L29.4205 520.965M97.4148 492.367L130.511 426.923" stroke="#C2C3C5"/>
<path d="M324.081 864.462L285.421 802.133M285.421 802.133L242.782 828.444C242.297 828.743 241.661 828.577 241.383 828.08L216.323 783.178C215.885 782.394 216.624 781.475 217.484 781.733L285.421 802.133ZM218.14 754.075L151.822 739.658C151.429 739.572 151.126 739.261 151.052 738.866L122.404 586.914C122.276 586.233 121.512 585.886 120.915 586.237L91.6364 603.455C91.1957 603.714 90.6303 603.599 90.326 603.188L29.4205 520.965M97.4148 492.367L130.511 426.923" stroke="#C2C3C5"/>
</g>
<g opacity="0.39">
<ellipse cx="201.082" cy="7.28102" rx="4.32003" ry="4.18363" transform="rotate(-4 201.082 7.28102)" fill="#C2C3C5"/>
<ellipse cx="206.09" cy="81.8621" rx="4.32003" ry="4.18363" transform="rotate(-4 206.09 81.8621)" fill="#C2C3C5"/>
<ellipse cx="258.308" cy="79.032" rx="4.32003" ry="4.18363" transform="rotate(-4 258.308 79.032)" fill="#C2C3C5"/>
<ellipse cx="256.719" cy="132.243" rx="4.32003" ry="4.18363" transform="rotate(-4 256.719 132.243)" fill="#C2C3C5"/>
<ellipse cx="242.125" cy="156.243" rx="4.32003" ry="4.18363" transform="rotate(-4 242.125 156.243)" fill="#C2C3C5"/>
<ellipse cx="295.453" cy="199.587" rx="4.32003" ry="4.18363" transform="rotate(-4 295.453 199.587)" fill="#C2C3C5"/>
<ellipse cx="250.187" cy="349.056" rx="4.32003" ry="4.18363" transform="rotate(-4 250.187 349.056)" fill="#C2C3C5"/>
<ellipse cx="284.008" cy="348.583" rx="4.32003" ry="4.18363" transform="rotate(-4 284.008 348.583)" fill="#C2C3C5"/>
<ellipse cx="299.679" cy="451.471" rx="4.32003" ry="4.18363" transform="rotate(-4 299.679 451.471)" fill="#C2C3C5"/>
<ellipse cx="227.699" cy="442.685" rx="4.32003" ry="4.18363" transform="rotate(-4 227.699 442.685)" fill="#C2C3C5"/>
<ellipse cx="166.492" cy="486.465" rx="4.32003" ry="4.18363" transform="rotate(-4 166.492 486.465)" fill="#C2C3C5"/>
<path d="M201.203 8.62816L206.075 81.8114M206.075 81.8114L255.809 78.6155C256.523 78.5696 257.131 79.1282 257.146 79.8435L258.174 130.355C258.197 131.483 256.836 132.067 256.034 131.273L206.075 81.8114ZM242.92 155.831L294.577 199.585C294.962 199.911 295.115 200.436 294.964 200.918L249.08 348.023C248.821 348.853 249.464 349.689 250.333 349.652L283.674 348.22C284.316 348.192 284.875 348.653 284.97 349.288L300.111 450.253M226.649 443.582L166.703 485.828" stroke="#C2C3C5"/>
<path d="M201.203 8.62816L206.075 81.8114M206.075 81.8114L256.076 78.5983C256.645 78.5618 257.129 79.0065 257.14 79.5759L258.187 130.987C258.205 131.885 257.122 132.35 256.484 131.718L206.075 81.8114ZM242.92 155.831L294.707 199.695C295.013 199.954 295.134 200.372 295.015 200.756L248.972 348.37C248.766 349.031 249.278 349.697 249.969 349.667L283.904 348.21C284.415 348.188 284.86 348.555 284.936 349.061L300.111 450.253M226.649 443.582L166.703 485.828" stroke="#C2C3C5"/>
<path d="M201.203 8.62816L206.075 81.8114M206.075 81.8114L256.076 78.5983C256.645 78.5618 257.129 79.0065 257.14 79.5759L258.187 130.987C258.205 131.885 257.122 132.35 256.484 131.718L206.075 81.8114ZM242.92 155.831L294.707 199.695C295.013 199.954 295.134 200.372 295.015 200.756L248.972 348.37C248.766 349.031 249.278 349.697 249.969 349.667L283.904 348.21C284.415 348.188 284.86 348.555 284.936 349.061L300.111 450.253M226.649 443.582L166.703 485.828" stroke="#C2C3C5"/>
</g>
<ellipse cx="528.504" cy="1288.55" rx="10.6647" ry="11.3557" transform="rotate(-13 528.504 1288.55)" fill="#EAEBEC"/>
<ellipse cx="369.836" cy="1204.13" rx="10.6647" ry="11.3557" transform="rotate(-13 369.836 1204.13)" fill="#EAEBEC"/>
<ellipse cx="269.222" cy="974.425" rx="14.841" ry="15.8025" transform="rotate(-13 269.222 974.425)" fill="#EAEBEC"/>
<ellipse cx="176.945" cy="1059.18" rx="9.07041" ry="9.19127" transform="rotate(-13 176.945 1059.18)" fill="#EAEBEC"/>
<ellipse cx="269.691" cy="1155.23" rx="9.07041" ry="9.19127" transform="rotate(-13 269.691 1155.23)" fill="#EAEBEC"/>
<ellipse cx="303.976" cy="1268.13" rx="9.07041" ry="9.19127" transform="rotate(-13 303.976 1268.13)" fill="#EAEBEC"/>
<ellipse cx="550.735" cy="1177.46" rx="10.6647" ry="11.3557" transform="rotate(-13 550.735 1177.46)" fill="#EAEBEC"/>
<circle cx="448.583" cy="1346.98" r="5.4612" transform="rotate(35 448.583 1346.98)" fill="#EAEBEC"/>
<circle cx="363.585" cy="1265.24" r="10.9224" transform="rotate(35 363.585 1265.24)" fill="#EAEBEC"/>
<circle cx="322.413" cy="1320.87" r="10.9224" transform="rotate(35 322.413 1320.87)" fill="#EAEBEC"/>
<circle cx="302.724" cy="1364.86" r="5.4612" transform="rotate(35 302.724 1364.86)" fill="#EAEBEC"/>
<circle cx="241.134" cy="1363.96" r="5.4612" transform="rotate(35 241.134 1363.96)" fill="#EAEBEC"/>
<circle cx="259.786" cy="1299.23" r="5.4612" transform="rotate(35 259.786 1299.23)" fill="#EAEBEC"/>
<circle cx="327.47" cy="1013.39" r="5.4612" transform="rotate(35 327.47 1013.39)" fill="#EAEBEC"/>
<circle cx="282.9" cy="864.399" r="5.4612" transform="rotate(35 282.9 864.399)" fill="#EAEBEC"/>
<circle cx="180.884" cy="952.969" r="5.4612" transform="rotate(35 180.884 952.969)" fill="#EAEBEC"/>
<circle cx="271.712" cy="1329.8" r="5.4612" transform="rotate(35 271.712 1329.8)" fill="#EAEBEC"/>
<circle cx="209.762" cy="1223.09" r="8.1918" transform="rotate(35 209.762 1223.09)" fill="#EAEBEC"/>
<circle cx="64.4305" cy="1229.11" r="9.102" transform="rotate(35 64.4305 1229.11)" fill="#EAEBEC"/>
<circle cx="78.6102" cy="1139.04" r="9.102" transform="rotate(35 78.6102 1139.04)" fill="#EAEBEC"/>
<path d="M372.542 1204.85L550.685 1177.36L530.462 1288.76L372.542 1204.85ZM372.542 1204.85L363.51 1268.53M448.356 1345.71L529.418 1290.25L363.51 1268.53M363.51 1268.53L323.684 1320.64M363.51 1268.53L269.348 1157.04M323.684 1320.64L269.348 1157.04M323.684 1320.64L270.443 1330.03M269.348 1157.04L209.238 1223.84M269.348 1157.04L175.855 1060.46M270.443 1330.03L259.038 1298.71M270.443 1330.03L303.024 1362.84M270.443 1330.03L240.388 1363.43M209.238 1223.84L66.7412 1227.4L78.8331 1140.31L209.238 1223.84ZM209.238 1223.84L175.855 1060.46M175.855 1060.46L266.988 973.154M266.988 973.154L331.407 1016.04M266.988 973.154L180.344 952.487M266.988 973.154L284.153 862.947" stroke="#EAEBEC"/>
<path d="M548.164 1283.81C550.94 1295.83 544.031 1307.64 532.81 1310.23C521.589 1312.82 510.203 1305.24 507.427 1293.21C504.65 1281.19 511.56 1269.38 522.781 1266.79C534.002 1264.2 545.388 1271.78 548.164 1283.81Z" stroke="#EAEBEC"/>
<path d="M569.776 1172.06C572.39 1183.38 565.884 1194.5 555.322 1196.94C544.76 1199.38 534.04 1192.24 531.426 1180.92C528.812 1169.59 535.318 1158.48 545.88 1156.04C556.442 1153.6 567.162 1160.74 569.776 1172.06Z" stroke="#EAEBEC"/>
<circle cx="208.492" cy="1223.31" r="15.8836" transform="rotate(35 208.492 1223.31)" stroke="#EAEBEC"/>
<ellipse cx="1245.02" cy="1155.08" rx="9.00989" ry="9.59364" transform="rotate(-62 1245.02 1155.08)" fill="#EAEBEC"/>
<ellipse cx="1103.25" cy="1209.45" rx="9.00989" ry="9.59364" transform="rotate(-62 1103.25 1209.45)" fill="#EAEBEC"/>
<ellipse cx="901.026" cy="1146.29" rx="12.5381" ry="13.3505" transform="rotate(-62 901.026 1146.29)" fill="#EAEBEC"/>
<ellipse cx="903.919" cy="1252.1" rx="7.66296" ry="7.76507" transform="rotate(-62 903.919 1252.1)" fill="#EAEBEC"/>
<ellipse cx="1016.57" cy="1246.2" rx="7.66296" ry="7.76507" transform="rotate(-62 1016.57 1246.2)" fill="#EAEBEC"/>
<ellipse cx="1107.55" cy="1286.92" rx="7.66296" ry="7.76507" transform="rotate(-62 1107.55 1286.92)" fill="#EAEBEC"/>
<ellipse cx="1186.51" cy="1079.33" rx="9.00989" ry="9.59364" transform="rotate(-62 1186.51 1079.33)" fill="#EAEBEC"/>
<circle cx="1237.98" cy="1238.42" r="4.61379" transform="rotate(-14 1237.98 1238.42)" fill="#EAEBEC"/>
<circle cx="1138.76" cy="1247.31" r="9.22758" transform="rotate(-14 1138.76 1247.31)" fill="#EAEBEC"/>
<circle cx="1151.4" cy="1304.39" r="9.22758" transform="rotate(-14 1151.4 1304.39)" fill="#EAEBEC"/>
<circle cx="1168.53" cy="1341.33" r="4.61379" transform="rotate(-14 1168.53 1341.33)" fill="#EAEBEC"/>
<circle cx="1133.82" cy="1380.1" r="4.61379" transform="rotate(-14 1133.82 1380.1)" fill="#EAEBEC"/>
<circle cx="1102.89" cy="1332.33" r="4.61379" transform="rotate(-14 1102.89 1332.33)" fill="#EAEBEC"/>
<circle cx="958.151" cy="1130.74" r="4.61379" transform="rotate(-14 958.151 1130.74)" fill="#EAEBEC"/>
<circle cx="838.452" cy="1076.58" r="4.61379" transform="rotate(-14 838.452 1076.58)" fill="#EAEBEC"/>
<circle cx="838.382" cy="1190.72" r="4.61379" transform="rotate(-14 838.382 1190.72)" fill="#EAEBEC"/>
<circle cx="1129" cy="1341.67" r="4.61379" transform="rotate(-14 1129 1341.67)" fill="#EAEBEC"/>
<circle cx="1026.62" cy="1322.02" r="6.92069" transform="rotate(-14 1026.62 1322.02)" fill="#EAEBEC"/>
<circle cx="949.904" cy="1418.03" r="7.68965" transform="rotate(-14 949.904 1418.03)" fill="#EAEBEC"/>
<circle cx="900.333" cy="1359.06" r="7.68965" transform="rotate(-14 900.333 1359.06)" fill="#EAEBEC"/>
<path d="M1105.21 1208.12L1186.42 1079.3L1246.24 1153.94L1105.21 1208.12ZM1105.21 1208.12L1140.8 1249.18M1237.04 1237.86L1246.61 1155.43L1140.8 1249.18M1140.8 1249.18L1151.96 1303.46M1140.8 1249.18L1017.53 1247.42M1151.96 1303.46L1017.53 1247.42M1151.96 1303.46L1128.43 1342.61M1017.53 1247.42L1026.8 1322.77M1017.53 1247.42L904.128 1253.5M1128.43 1342.61L1102.14 1332.52M1128.43 1342.61L1167.41 1340.02M1128.43 1342.61L1133.07 1380.28M1026.8 1322.77L950.092 1415.6L901.264 1359.62L1026.8 1322.77ZM1026.8 1322.77L904.128 1253.5M904.128 1253.5L898.974 1147.01M898.974 1147.01L962.022 1129.7M898.974 1147.01L837.774 1190.8M898.974 1147.01L838.22 1074.98" stroke="#EAEBEC"/>
<path d="M1252.85 1139.98C1262.03 1144.86 1265.7 1155.76 1261.16 1164.31C1256.61 1172.86 1245.52 1175.91 1236.34 1171.03C1227.17 1166.15 1223.5 1155.25 1228.04 1146.7C1232.59 1138.15 1243.68 1135.1 1252.85 1139.98Z" stroke="#EAEBEC"/>
<path d="M1193.59 1064.27C1202.22 1068.86 1205.68 1079.12 1201.4 1087.16C1197.13 1095.21 1186.68 1098.08 1178.05 1093.49C1169.41 1088.9 1165.95 1078.63 1170.23 1070.59C1174.51 1062.55 1184.95 1059.68 1193.59 1064.27Z" stroke="#EAEBEC"/>
<circle cx="1026.06" cy="1322.96" r="13.3414" transform="rotate(-14 1026.06 1322.96)" stroke="#EAEBEC"/>
<ellipse cx="1772.67" cy="605.992" rx="9.00989" ry="9.59364" transform="rotate(95 1772.67 605.992)" fill="#EAEBEC"/>
<ellipse cx="1881.93" cy="500.544" rx="9.00989" ry="9.59364" transform="rotate(95 1881.93 500.544)" fill="#EAEBEC"/>
<ellipse cx="2092.75" cy="479.67" rx="12.5381" ry="13.3505" transform="rotate(95 2092.75 479.67)" fill="#EAEBEC"/>
<ellipse cx="2048.75" cy="383.4" rx="7.66296" ry="7.76507" transform="rotate(95 2048.75 383.4)" fill="#EAEBEC"/>
<ellipse cx="1947.35" cy="432.844" rx="7.66296" ry="7.76507" transform="rotate(95 1947.35 432.844)" fill="#EAEBEC"/>
<ellipse cx="1847.69" cy="430.916" rx="7.66296" ry="7.76507" transform="rotate(95 1847.69 430.916)" fill="#EAEBEC"/>
<ellipse cx="1856.13" cy="652.857" rx="9.00989" ry="9.59364" transform="rotate(95 1856.13 652.857)" fill="#EAEBEC"/>
<circle cx="1746.59" cy="526.523" r="4.61379" transform="rotate(143 1746.59 526.523)" fill="#EAEBEC"/>
<circle cx="1834.45" cy="479.567" r="9.22758" transform="rotate(143 1834.45 479.567)" fill="#EAEBEC"/>
<circle cx="1800.51" cy="431.966" r="9.22758" transform="rotate(143 1800.51 431.966)" fill="#EAEBEC"/>
<circle cx="1770.3" cy="404.66" r="4.61379" transform="rotate(143 1770.3 404.66)" fill="#EAEBEC"/>
<circle cx="1787.1" cy="355.408" r="4.61379" transform="rotate(143 1787.1 355.408)" fill="#EAEBEC"/>
<circle cx="1834.24" cy="387.293" r="4.61379" transform="rotate(143 1834.24 387.293)" fill="#EAEBEC"/>
<circle cx="2046.24" cy="516.301" r="4.61379" transform="rotate(143 2046.24 516.301)" fill="#EAEBEC"/>
<circle cx="2177.59" cy="519.386" r="4.61379" transform="rotate(143 2177.59 519.386)" fill="#EAEBEC"/>
<circle cx="2133.05" cy="414.294" r="4.61379" transform="rotate(143 2133.05 414.294)" fill="#EAEBEC"/>
<circle cx="1806.56" cy="388.897" r="4.61379" transform="rotate(143 1806.56 388.897)" fill="#EAEBEC"/>
<circle cx="1908.48" cy="366.979" r="6.92069" transform="rotate(143 1908.48 366.979)" fill="#EAEBEC"/>
<circle cx="1941.58" cy="248.633" r="7.68965" transform="rotate(143 1941.58 248.633)" fill="#EAEBEC"/>
<circle cx="2010.25" cy="283.544" r="7.68965" transform="rotate(143 2010.25 283.544)" fill="#EAEBEC"/>
<path d="M1880.64 502.531L1856.22 652.843L1771.99 607.511L1880.64 502.531ZM1880.64 502.531L1831.83 478.65M1747.66 526.671L1771.07 606.283L1831.83 478.65M1831.83 478.65L1800.36 433.045M1831.83 478.65L1946 432.099M1800.36 433.045L1946 432.099M1800.36 433.045L1806.71 387.816M1946 432.099L1908.01 366.362M1946 432.099L2048 382.192M1806.71 387.816L1834.85 386.829M1806.71 387.816L1771.84 405.427M1806.71 387.816L1787.72 354.947M1908.01 366.362L1942.36 250.939L2009.18 283.391L1908.01 366.362ZM1908.01 366.362L2048 382.192M2048 382.192L2094.36 478.208M2094.36 478.208L2043.08 518.772M2094.36 478.208L2133.58 413.987M2094.36 478.208L2178.43 520.772" stroke="#EAEBEC"/>
<path d="M1771.35 622.948C1761.01 622.042 1753.36 613.442 1754.2 603.797C1755.05 594.152 1764.07 587.01 1774.42 587.915C1784.77 588.821 1792.41 597.421 1791.57 607.066C1790.73 616.711 1781.7 623.853 1771.35 622.948Z" stroke="#EAEBEC"/>
<path d="M1855.5 669.485C1845.76 668.633 1838.56 660.537 1839.36 651.461C1840.15 642.386 1848.64 635.662 1858.38 636.515C1868.13 637.367 1875.32 645.463 1874.53 654.538C1873.73 663.614 1865.24 670.337 1855.5 669.485Z" stroke="#EAEBEC"/>
<circle cx="1908.63" cy="365.901" r="13.3414" transform="rotate(143 1908.63 365.901)" stroke="#EAEBEC"/>
</svg>
