<svg width="146" height="49" viewBox="0 0 146 49" fill="none" xmlns="http://www.w3.org/2000/svg">
<mask id="mask0_266_682" style="mask-type:luminance" maskUnits="userSpaceOnUse" x="-2" y="0" width="148" height="49">
<path d="M145.998 0H-1.19141V49H145.998V0Z" fill="white"/>
</mask>
<g mask="url(#mask0_266_682)">
<path d="M11.3477 5.17034L12.0299 0.126274H12.1318L14.1363 4.26434L16.1281 0.126274H16.2026L16.9109 5.17034H16.4345L15.9405 1.55945L14.1953 5.17034H14.0667L12.304 1.53116L11.8321 5.17034H11.3477ZM20.8872 0.126274H23.7067V0.61826H21.3811V2.1991H23.6859V2.6904H21.3811V4.67904H23.6859V5.17034H20.8872V0.126274ZM27.5736 5.17034V0.126274H28.5957C29.3323 0.126274 29.8677 0.186996 30.2002 0.30775C30.678 0.480255 31.052 0.776274 31.3207 1.19995C31.5895 1.62293 31.7242 2.12596 31.7242 2.71178C31.7242 3.21757 31.6183 3.66126 31.4045 4.04559C31.1914 4.42925 30.9139 4.71353 30.5742 4.8964C30.2337 5.07925 29.7551 5.17034 29.1413 5.17034H27.5736ZM28.0475 4.69284H28.6158C29.2947 4.69284 29.7645 4.64936 30.0279 4.56311C30.3972 4.43891 30.6887 4.21741 30.8998 3.89655C31.1117 3.575 31.2168 3.18238 31.2168 2.71868C31.2168 2.23291 31.1023 1.81613 30.8723 1.47182C30.6438 1.12611 30.3235 0.890128 29.9147 0.762474C29.607 0.665871 29.1004 0.61826 28.3946 0.61826H28.0475V4.69284ZM35.6261 0.126274H36.1199V5.17034H35.6261V0.126274ZM44.8499 1.05711L44.4612 1.36279C44.2474 1.07712 43.99 0.860457 43.6898 0.712793C43.3902 0.565818 43.0605 0.491986 42.7005 0.491986C42.3085 0.491986 41.9446 0.588589 41.6095 0.781795C41.2744 0.975001 41.0164 1.23514 40.8321 1.56083C40.6478 1.88652 40.5553 2.25361 40.5553 2.66004C40.5553 3.27622 40.761 3.79029 41.1733 4.20085C41.5847 4.61348 42.1034 4.81911 42.7314 4.81911C43.421 4.81911 43.9975 4.54311 44.4612 3.9904L44.8499 4.29262C44.6046 4.6121 44.2976 4.86051 43.9311 5.0344C43.5638 5.20898 43.1536 5.2973 42.7005 5.2973C41.8381 5.2973 41.1578 5.00335 40.6606 4.41545C40.2437 3.92001 40.0339 3.32038 40.0339 2.61933C40.0339 1.88169 40.2865 1.25998 40.7925 0.756264C41.2985 0.251858 41.9319 0 42.6938 0C43.1536 0 43.5684 0.0924629 43.9391 0.277389C44.309 0.463694 44.6133 0.723833 44.8499 1.05711ZM50.8702 0.126274L53.1683 5.17034H52.6396L51.8694 3.5129H49.7349L48.9702 5.17034H48.4214L50.7469 0.126274H50.8702ZM50.8085 1.18477L49.9614 3.02091H51.6524L50.8085 1.18477ZM56.9435 0.126274H57.4374V4.67904H59.3374V5.17034H56.9435V0.126274ZM67.7584 0.126274H68.7403C69.3032 0.126274 69.6838 0.151115 69.8802 0.201486C70.1617 0.272558 70.3916 0.418153 70.5699 0.63896C70.7495 0.859077 70.8386 1.13716 70.8386 1.47044C70.8386 1.80648 70.7515 2.08317 70.5765 2.30191C70.403 2.51996 70.1631 2.66624 69.8575 2.74214C69.6336 2.79735 69.216 2.82426 68.6042 2.82426H68.2523V5.17034H67.7584V0.126274ZM68.2523 0.61826V2.33228L69.0867 2.34263C69.4238 2.34263 69.6712 2.31157 69.8279 2.24809C69.9841 2.18461 70.1081 2.08387 70.1973 1.94379C70.2864 1.80303 70.3305 1.64501 70.3305 1.47182C70.3305 1.30345 70.2864 1.14751 70.1973 1.00674C70.1081 0.866667 69.9888 0.766614 69.8427 0.707272C69.6966 0.64724 69.4573 0.61826 69.1236 0.61826H68.2523ZM74.8336 0.126274H75.3276V4.67904H77.2282V5.17034H74.8336V0.126274ZM83.0348 0.126274L85.3329 5.17034H84.8034L84.034 3.5129H81.8995L81.1341 5.17034H80.5853L82.9108 0.126274H83.0348ZM82.9731 1.18477L82.126 3.02091H83.8168L82.9731 1.18477ZM88.6202 0.61826V0.126274H91.3163V0.61826H90.2192V5.17034H89.7179V0.61826H88.6202ZM95.0446 0.126274H97.5142V0.61826H95.5385V2.1991H97.5142V2.6904H95.5385V5.17034H95.0446V0.126274ZM103.734 0C104.48 0 105.104 0.255308 105.606 0.764544C106.108 1.27378 106.36 1.9017 106.36 2.64623C106.36 3.38525 106.11 4.0111 105.609 4.52516C105.106 5.03923 104.497 5.2973 103.774 5.2973C103.044 5.2973 102.429 5.04061 101.926 4.52861C101.425 4.01731 101.174 3.39767 101.174 2.67107C101.174 2.18599 101.287 1.73748 101.517 1.32278C101.745 0.909449 102.057 0.585139 102.452 0.351221C102.847 0.117304 103.275 0 103.734 0ZM103.757 0.491986C103.392 0.491986 103.047 0.588589 102.72 0.783175C102.395 0.977761 102.14 1.23859 101.955 1.56772C101.773 1.89825 101.681 2.26465 101.681 2.66969C101.681 3.26794 101.883 3.77372 102.29 4.18567C102.695 4.599 103.184 4.80531 103.757 4.80531C104.139 4.80531 104.492 4.71008 104.818 4.52103C105.143 4.33126 105.397 4.07112 105.578 3.74199C105.761 3.41285 105.852 3.04783 105.852 2.64486C105.852 2.24464 105.761 1.88238 105.578 1.55945C105.397 1.23652 105.14 0.977761 104.81 0.783175C104.479 0.588589 104.128 0.491986 103.757 0.491986ZM110.391 0.126274H111.375C111.923 0.126274 112.294 0.149735 112.488 0.195276C112.782 0.263588 113.02 0.409873 113.203 0.63551C113.387 0.860457 113.479 1.13784 113.479 1.46699C113.479 1.74093 113.415 1.98243 113.289 2.18944C113.163 2.39783 112.982 2.55515 112.747 2.66141C112.513 2.76767 112.189 2.8215 111.774 2.82426L113.547 5.17034H112.943L111.17 2.82426H110.885V5.17034H110.391V0.126274ZM110.885 0.61826V2.33228L111.737 2.33918C112.067 2.33918 112.31 2.30743 112.469 2.24326C112.626 2.17909 112.75 2.07697 112.838 1.93689C112.927 1.79613 112.971 1.63949 112.971 1.46492C112.971 1.29586 112.927 1.14129 112.836 1.00329C112.747 0.865287 112.629 0.766614 112.483 0.707272C112.338 0.64724 112.096 0.61826 111.756 0.61826H110.885ZM117.331 5.17034L118.014 0.126274H118.115L120.12 4.26434L122.112 0.126274H122.186L122.895 5.17034H122.418L121.924 1.55945L120.179 5.17034H120.05L118.288 1.53116L117.816 5.17034H117.331Z" fill="#EE4F4F"/>
<path fill-rule="evenodd" clip-rule="evenodd" d="M0.226562 10.637H1.93813V12.3541H0.226562V10.637Z" fill="#EE4F4F"/>
<path fill-rule="evenodd" clip-rule="evenodd" d="M3.07812 10.637H4.78969V12.3541H3.07812V10.637Z" fill="#EE4F4F"/>
<path fill-rule="evenodd" clip-rule="evenodd" d="M5.93359 10.637H7.64516V12.3541H5.93359V10.637Z" fill="#EE4F4F"/>
<path fill-rule="evenodd" clip-rule="evenodd" d="M141.16 2.64844H137.826H136.124V4.35531V6.81586V10.4143H137.826V4.35531H141.16C142.88 4.35531 144.294 5.77299 144.294 7.49807C144.294 9.22382 142.88 10.6421 141.16 10.6421H138.196H136.124H129.857H128.154H127.388H8.70703V12.3491H127.388H128.154H129.857H136.124H137.826H138.196H141.16C143.82 12.3491 145.996 10.1662 145.996 7.49807C145.996 4.83057 143.82 2.64844 141.16 2.64844ZM129.857 10.4143V6.81586V4.35531V2.64844H128.154V10.4143H129.857ZM128.154 12.5762V15.6765C128.154 18.3447 130.33 20.5269 132.991 20.5269C135.65 20.5269 137.826 18.3447 137.826 15.6765V12.5762H136.124V15.6765C136.124 17.4023 134.712 18.8199 132.991 18.8199C131.27 18.8199 129.857 17.4023 129.857 15.6765V12.5762H128.154Z" fill="#EE4F4F"/>
<path d="M41.0469 18.543H43.9065V46.0325H54.9078V49.0024H41.0469V18.543Z" fill="#EE4F4F"/>
<path d="M58.2109 18.543H60.8511V49.0024H58.2109V18.543Z" fill="#EE4F4F"/>
<path d="M64.1523 49.0024V18.543H64.7677L83.7346 41.8396V18.543H86.5939V49.0024H85.9456L67.0915 25.9099V49.0024H64.1523Z" fill="#EE4F4F"/>
<path d="M89.2305 18.543H91.8706V49.0024H89.2305V18.543Z" fill="#EE4F4F"/>
<path fill-rule="evenodd" clip-rule="evenodd" d="M110.434 18.543C115.579 18.543 120.128 21.0834 122.894 24.9756L120.789 26.5803C118.51 23.3179 114.722 21.1834 110.434 21.1834C103.466 21.1834 97.818 26.8198 97.818 33.773C97.818 40.7256 103.466 46.3626 110.434 46.3626C114.702 46.3626 118.475 44.2474 120.758 41.0107L122.861 42.6153C120.093 46.4821 115.559 49.0024 110.434 49.0024C102.005 49.0024 95.1719 42.1839 95.1719 33.773C95.1719 25.3613 102.005 18.543 110.434 18.543Z" fill="#EE4F4F"/>
<path fill-rule="evenodd" clip-rule="evenodd" d="M25.9497 18.543C31.0948 18.543 35.6448 21.0834 38.4093 24.9756L36.3057 26.5803C34.0253 23.3179 30.2376 21.1834 25.9497 21.1834C18.9815 21.1834 13.3329 26.8198 13.3329 33.773C13.3329 40.7256 18.9815 46.3626 25.9497 46.3626C30.2174 46.3626 33.9903 44.2474 36.2734 41.0107L38.3771 42.6153C35.6092 46.4821 31.0746 49.0024 25.9497 49.0024C17.5206 49.0024 10.6875 42.1839 10.6875 33.773C10.6875 25.3613 17.5206 18.543 25.9497 18.543Z" fill="#EE4F4F"/>
</g>
</svg>
