<svg width="370" height="376" viewBox="0 0 370 376" fill="none" xmlns="http://www.w3.org/2000/svg">
<ellipse cx="267.789" cy="281.315" rx="5.89922" ry="6.28143" transform="rotate(3 267.789 281.315)" fill="#EAEBEC"/>
<ellipse cx="196.293" cy="212.23" rx="5.89922" ry="6.28143" transform="rotate(3 196.293 212.23)" fill="#EAEBEC"/>
<ellipse cx="177.815" cy="74.7516" rx="8.20933" ry="8.74121" transform="rotate(3 177.815 74.7516)" fill="#EAEBEC"/>
<ellipse cx="115.826" cy="105.748" rx="5.01732" ry="5.08417" transform="rotate(3 115.826 105.748)" fill="#EAEBEC"/>
<ellipse cx="150.498" cy="170.964" rx="5.01732" ry="5.08417" transform="rotate(3 150.498 170.964)" fill="#EAEBEC"/>
<ellipse cx="151.514" cy="236.221" rx="5.01732" ry="5.08417" transform="rotate(3 151.514 236.221)" fill="#EAEBEC"/>
<ellipse cx="296.551" cy="225.632" rx="5.89922" ry="6.28143" transform="rotate(3 296.551 225.632)" fill="#EAEBEC"/>
<circle cx="216.385" cy="300.194" r="3.02088" transform="rotate(51 216.385 300.194)" fill="#EAEBEC"/>
<circle cx="183.65" cy="243.775" r="6.04175" transform="rotate(51 183.65 243.775)" fill="#EAEBEC"/>
<circle cx="153.279" cy="267.073" r="6.04175" transform="rotate(51 153.279 267.073)" fill="#EAEBEC"/>
<circle cx="136.1" cy="287.463" r="3.02088" transform="rotate(51 136.1 287.463)" fill="#EAEBEC"/>
<circle cx="103.491" cy="277.592" r="3.02088" transform="rotate(51 103.491 277.592)" fill="#EAEBEC"/>
<circle cx="123.276" cy="246.02" r="3.02088" transform="rotate(51 123.276 246.02)" fill="#EAEBEC"/>
<circle cx="202.85" cy="104.352" r="3.02088" transform="rotate(51 202.85 104.352)" fill="#EAEBEC"/>
<circle cx="201.866" cy="18.3347" r="3.02088" transform="rotate(51 201.866 18.3347)" fill="#EAEBEC"/>
<circle cx="134.116" cy="49.8747" r="3.02088" transform="rotate(51 134.116 49.8747)" fill="#EAEBEC"/>
<circle cx="124.96" cy="264.094" r="3.02088" transform="rotate(51 124.96 264.094)" fill="#EAEBEC"/>
<circle cx="108.287" cy="197.907" r="4.53132" transform="rotate(51 108.287 197.907)" fill="#EAEBEC"/>
<circle cx="30.0917" cy="178.951" r="5.0348" transform="rotate(51 30.0917 178.951)" fill="#EAEBEC"/>
<circle cx="51.3651" cy="133.217" r="5.0348" transform="rotate(51 51.3651 133.217)" fill="#EAEBEC"/>
<path d="M197.624 213.026L296.538 225.57L268.8 281.721L197.624 213.026ZM197.624 213.026L183.112 245.508M216.458 299.488L268.017 282.354L183.112 245.508M183.112 245.508L153.99 267.148M183.112 245.508L150.043 171.87M153.99 267.148L150.043 171.87M153.99 267.148L124.249 264.022M150.043 171.87L107.896 198.226M150.043 171.87L115.055 106.263M124.249 264.022L122.96 245.63M124.249 264.022L136.57 286.437M124.249 264.022L103.175 277.2M107.896 198.226L31.5837 178.392L51.2922 133.927L107.896 198.226ZM107.896 198.226L115.055 106.263M115.055 106.263L176.824 73.7356M176.824 73.7356L204.539 106.36M176.824 73.7356L133.905 49.536M176.824 73.7356L202.755 17.7531" stroke="#EAEBEC"/>
<path d="M278.742 281.776C278.391 288.484 273.009 293.6 266.784 293.273C260.559 292.947 255.742 287.297 256.093 280.59C256.445 273.882 261.826 268.766 268.051 269.093C274.277 269.419 279.094 275.069 278.742 281.776Z" stroke="#EAEBEC"/>
<path d="M307.27 225.653C306.939 231.963 301.878 236.772 296.027 236.465C290.175 236.159 285.644 230.847 285.975 224.537C286.306 218.228 291.367 213.419 297.218 213.726C303.07 214.032 307.601 219.344 307.27 225.653Z" stroke="#EAEBEC"/>
<circle cx="107.578" cy="197.833" r="8.56263" transform="rotate(51 107.578 197.833)" stroke="#EAEBEC"/>
</svg>
