<svg width="222" height="327" viewBox="0 0 222 327" fill="none" xmlns="http://www.w3.org/2000/svg">
<g opacity="0.39">
<ellipse cx="40.553" cy="3.46667" rx="3.43909" ry="3.3305" transform="rotate(-23 40.553 3.46667)" fill="#C2C3C5"/>
<ellipse cx="91.717" cy="28.2675" rx="3.43909" ry="3.3305" transform="rotate(-23 91.717 28.2675)" fill="#C2C3C5"/>
<ellipse cx="86.9514" cy="50.1144" rx="3.43909" ry="3.3305" transform="rotate(-23 86.9514 50.1144)" fill="#C2C3C5"/>
<ellipse cx="138.326" cy="68.9189" rx="3.43909" ry="3.3305" transform="rotate(-23 138.326 68.9189)" fill="#C2C3C5"/>
<ellipse cx="142.994" cy="193.157" rx="3.43909" ry="3.3305" transform="rotate(-23 142.994 193.157)" fill="#C2C3C5"/>
<ellipse cx="168.326" cy="184.036" rx="3.43909" ry="3.3305" transform="rotate(-23 168.326 184.036)" fill="#C2C3C5"/>
<ellipse cx="206.791" cy="257.419" rx="3.43909" ry="3.3305" transform="rotate(-23 206.791 257.419)" fill="#C2C3C5"/>
<ellipse cx="150.334" cy="269.46" rx="3.43909" ry="3.3305" transform="rotate(-23 150.334 269.46)" fill="#C2C3C5"/>
<ellipse cx="115.612" cy="318.278" rx="3.43909" ry="3.3305" transform="rotate(-23 115.612 318.278)" fill="#C2C3C5"/>
<path d="M17.8927 -50.3907L40.5281 3.43208M40.5281 3.43208L77.1349 -11.8635C77.6603 -12.083 78.2628 -11.8201 78.4591 -11.2855L92.3247 26.4685C92.6344 27.3118 91.7615 28.104 90.9522 27.7142L40.5281 3.43208ZM87.4456 49.5976L137.669 69.1436C138.043 69.2893 138.294 69.6448 138.305 70.0463L141.895 192.666C141.915 193.358 142.615 193.82 143.26 193.567L167.984 183.848C168.46 183.661 169.001 183.863 169.237 184.317L206.801 256.389M149.777 270.407L115.605 317.744" stroke="#C2C3C5"/>
<path d="M17.8927 -50.3907L40.5281 3.43208M40.5281 3.43208L77.1349 -11.8635C77.6603 -12.083 78.2628 -11.8201 78.4591 -11.2855L92.3247 26.4685C92.6344 27.3118 91.7615 28.104 90.9521 27.7143L40.5281 3.43208ZM87.4456 49.5976L137.669 69.1436C138.043 69.2893 138.294 69.6448 138.305 70.0463L141.895 192.666C141.915 193.358 142.615 193.82 143.26 193.567L167.984 183.848C168.46 183.661 169.001 183.863 169.237 184.317L206.801 256.389M149.777 270.407L115.605 317.744" stroke="#C2C3C5"/>
<path d="M17.8927 -50.3907L40.5281 3.43208M40.5281 3.43208L77.1349 -11.8635C77.6603 -12.083 78.2628 -11.8201 78.4591 -11.2855L92.3247 26.4685C92.6344 27.3118 91.7615 28.104 90.9521 27.7143L40.5281 3.43208ZM87.4456 49.5976L137.669 69.1436C138.043 69.2893 138.294 69.6448 138.305 70.0463L141.895 192.666C141.915 193.358 142.615 193.82 143.26 193.567L167.984 183.848C168.46 183.661 169.001 183.863 169.237 184.317L206.801 256.389M149.777 270.407L115.605 317.744" stroke="#C2C3C5"/>
</g>
</svg>
