<svg width="363" height="214" viewBox="0 0 363 214" fill="none" xmlns="http://www.w3.org/2000/svg">
<ellipse cx="63.4772" cy="221.262" rx="6.05632" ry="6.44871" transform="rotate(111 63.4772 221.262)" fill="#EAEBEC"/>
<ellipse cx="153.61" cy="173.372" rx="6.05632" ry="6.44871" transform="rotate(111 153.61 173.372)" fill="#EAEBEC"/>
<ellipse cx="293.703" cy="198.946" rx="8.42794" ry="8.97399" transform="rotate(111 293.703 198.946)" fill="#EAEBEC"/>
<ellipse cx="283.105" cy="128.587" rx="5.15093" ry="5.21957" transform="rotate(111 283.105 128.587)" fill="#EAEBEC"/>
<ellipse cx="208.434" cy="141.75" rx="5.15093" ry="5.21957" transform="rotate(111 208.434 141.75)" fill="#EAEBEC"/>
<ellipse cx="144.394" cy="122.039" rx="5.15093" ry="5.21957" transform="rotate(111 144.394 122.039)" fill="#EAEBEC"/>
<circle cx="61.3526" cy="165.083" r="3.10132" transform="rotate(159 61.3526 165.083)" fill="#EAEBEC"/>
<circle cx="126.822" cy="151.021" r="6.20265" transform="rotate(159 126.822 151.021)" fill="#EAEBEC"/>
<circle cx="113.709" cy="113.975" r="6.20265" transform="rotate(159 113.709 113.975)" fill="#EAEBEC"/>
<circle cx="99.2511" cy="90.7341" r="3.10132" transform="rotate(159 99.2511 90.7341)" fill="#EAEBEC"/>
<circle cx="119.235" cy="62.0239" r="3.10132" transform="rotate(159 119.235 62.0239)" fill="#EAEBEC"/>
<circle cx="143.786" cy="91.3589" r="3.10132" transform="rotate(159 143.786 91.3589)" fill="#EAEBEC"/>
<circle cx="256.86" cy="213.996" r="3.10132" transform="rotate(159 256.86 213.996)" fill="#EAEBEC"/>
<circle cx="331.857" cy="164.171" r="3.10132" transform="rotate(159 331.857 164.171)" fill="#EAEBEC"/>
<circle cx="125.603" cy="87.2673" r="3.10132" transform="rotate(159 125.603 87.2673)" fill="#EAEBEC"/>
<circle cx="195.517" cy="91.9879" r="4.65199" transform="rotate(159 195.517 91.9879)" fill="#EAEBEC"/>
<circle cx="238.83" cy="21.653" r="5.16887" transform="rotate(159 238.83 21.653)" fill="#EAEBEC"/>
<circle cx="276.736" cy="56.9333" r="5.16887" transform="rotate(159 276.736 56.9333)" fill="#EAEBEC"/>
<path d="M152.413 174.417L108.785 267.016L62.76 222.12L152.413 174.417ZM152.413 174.417L125.301 149.944M62.0179 165.378L62.3896 221.155L125.301 149.944M125.301 149.944L113.412 114.644M125.301 149.944L207.692 141.017M113.412 114.644L207.692 141.017M113.412 114.644L125.899 86.597M207.692 141.017L195.33 91.5039M207.692 141.017L282.849 127.67M125.899 86.597L144.266 91.1736M125.899 86.597L100.104 91.5157M125.899 86.597L119.718 61.8403M195.33 91.5039L238.905 23.2865L276.067 56.6359L195.33 91.5039ZM195.33 91.5039L282.849 127.67M282.849 127.67L295.012 198.299M295.012 198.299L254.365 215.009M295.012 198.299L332.256 164.07M295.012 198.299L341.446 241.377" stroke="#EAEBEC"/>
<path d="M59.5481 231.823C53.1046 229.349 49.8123 222.465 52.1087 216.483C54.4051 210.5 61.4583 207.587 67.9018 210.061C74.3453 212.534 77.6376 219.419 75.3412 225.401C73.0449 231.383 65.9916 234.296 59.5481 231.823Z" stroke="#EAEBEC"/>
<circle cx="195.816" cy="91.3196" r="8.80397" transform="rotate(159 195.816 91.3196)" stroke="#EAEBEC"/>
</svg>
