<svg width="222" height="292" viewBox="0 0 222 292" fill="none" xmlns="http://www.w3.org/2000/svg">
<g opacity="0.39">
<ellipse cx="17.4514" cy="4.62701" rx="3.43909" ry="3.3305" transform="rotate(-23 17.4514 4.62701)" fill="#C2C3C5"/>
<ellipse cx="40.553" cy="59.4666" rx="3.43909" ry="3.3305" transform="rotate(-23 40.553 59.4666)" fill="#C2C3C5"/>
<ellipse cx="79.1233" cy="43.8032" rx="3.43909" ry="3.3305" transform="rotate(-23 79.1233 43.8032)" fill="#C2C3C5"/>
<ellipse cx="91.717" cy="84.2674" rx="3.43909" ry="3.3305" transform="rotate(-23 91.717 84.2674)" fill="#C2C3C5"/>
<ellipse cx="86.9514" cy="106.114" rx="3.43909" ry="3.3305" transform="rotate(-23 86.9514 106.114)" fill="#C2C3C5"/>
<ellipse cx="138.326" cy="124.919" rx="3.43909" ry="3.3305" transform="rotate(-23 138.326 124.919)" fill="#C2C3C5"/>
<ellipse cx="142.994" cy="249.157" rx="3.43909" ry="3.3305" transform="rotate(-23 142.994 249.157)" fill="#C2C3C5"/>
<ellipse cx="168.326" cy="240.036" rx="3.43909" ry="3.3305" transform="rotate(-23 168.326 240.036)" fill="#C2C3C5"/>
<path d="M17.8927 5.6092L40.5281 59.432M40.5281 59.432L77.1349 44.1364C77.6603 43.9169 78.2628 44.1798 78.4591 44.7144L92.3247 82.4684C92.6344 83.3117 91.7615 84.1039 90.9522 83.7141L40.5281 59.432ZM87.4456 105.597L137.669 125.144C138.043 125.289 138.294 125.645 138.305 126.046L141.895 248.665C141.915 249.358 142.615 249.82 143.26 249.567L167.984 239.848C168.46 239.661 169.001 239.863 169.237 240.317L206.801 312.389M149.777 326.407L115.605 373.744" stroke="#C2C3C5"/>
<path d="M17.8927 5.6092L40.5281 59.432M40.5281 59.432L77.1349 44.1364C77.6603 43.9169 78.2628 44.1798 78.4591 44.7144L92.3247 82.4684C92.6344 83.3117 91.7615 84.1039 90.9521 83.7141L40.5281 59.432ZM87.4456 105.597L137.669 125.144C138.043 125.289 138.294 125.645 138.305 126.046L141.895 248.665C141.915 249.358 142.615 249.82 143.26 249.567L167.984 239.848C168.46 239.661 169.001 239.863 169.237 240.317L206.801 312.389M149.777 326.407L115.605 373.744" stroke="#C2C3C5"/>
<path d="M17.8927 5.6092L40.5281 59.432M40.5281 59.432L77.1349 44.1364C77.6603 43.9169 78.2628 44.1798 78.4591 44.7144L92.3247 82.4684C92.6344 83.3117 91.7615 84.1039 90.9521 83.7141L40.5281 59.432ZM87.4456 105.597L137.669 125.144C138.043 125.289 138.294 125.645 138.305 126.046L141.895 248.665C141.915 249.358 142.615 249.82 143.26 249.567L167.984 239.848C168.46 239.661 169.001 239.863 169.237 240.317L206.801 312.389M149.777 326.407L115.605 373.744" stroke="#C2C3C5"/>
</g>
</svg>
