<svg width="715" height="787" viewBox="0 0 715 787" fill="none" xmlns="http://www.w3.org/2000/svg">
<g filter="url(#filter0_d_58_3211)">
<rect x="157" y="60" width="534" height="628" rx="4" fill="black" fill-opacity="0.03" shape-rendering="crispEdges"/>
<rect x="157.5" y="60.5" width="533" height="627" rx="3.5" stroke="#100F0D" stroke-opacity="0.09" shape-rendering="crispEdges"/>
</g>
<g filter="url(#filter1_d_58_3211)">
<rect x="72" y="217" width="543" height="406" rx="6" fill="white"/>
<rect x="72.5" y="217.5" width="542" height="405" rx="5.5" stroke="#100F0D" stroke-opacity="0.09"/>
<mask id="mask0_58_3211" style="mask-type:luminance" maskUnits="userSpaceOnUse" x="122" y="267" width="442" height="306">
<path d="M563.836 267.476H122.406V572.763H563.836V267.476Z" fill="white"/>
</mask>
<g mask="url(#mask0_58_3211)">
<path d="M419.185 346.831C378.593 308.048 312.781 308.048 272.189 346.831C231.599 385.614 231.599 448.494 272.189 487.277C312.781 526.06 378.593 526.06 419.185 487.277C459.776 448.494 459.776 385.614 419.185 346.831Z" stroke="#7AB8EB" stroke-width="39"/>
<path d="M419.178 487.277C386.258 518.731 336.751 524.674 297.559 505.11C288.426 500.55 279.855 494.607 272.184 487.277" stroke="#97DA97" stroke-width="39"/>
<path d="M255.642 367.399C232.666 405.378 238.182 454.784 272.189 487.277C279.861 494.607 288.434 500.55 297.566 505.11" stroke="#FACB86" stroke-width="39"/>
<path d="M255.641 367.399C260.089 360.046 265.605 353.122 272.189 346.831C312.78 308.048 378.592 308.048 419.184 346.831C428.277 355.52 435.334 365.416 440.352 375.982" stroke="#E78683" stroke-width="39"/>
<path d="M375.444 388.624C358.657 372.585 331.437 372.585 314.649 388.624C297.862 404.664 297.862 430.67 314.649 446.71C331.437 462.75 358.657 462.75 375.444 446.71C392.232 430.67 392.232 404.664 375.444 388.624Z" stroke="#E78683" stroke-width="39"/>
<path d="M375.443 388.625C392.231 404.664 392.231 430.67 375.443 446.71C358.656 462.75 331.436 462.75 314.648 446.71" stroke="#7AB8EB" stroke-width="39"/>
<path d="M314.648 446.71C325.673 457.245 341.198 460.86 355.313 457.558" stroke="#97DA97" stroke-width="39"/>
<path d="M314.65 388.625C303.959 398.839 300.075 413.098 303.002 426.25C304.672 433.748 308.555 440.887 314.65 446.71" stroke="#FACB86" stroke-width="39"/>
<path d="M562.555 482.035C563.263 482.035 563.838 481.486 563.838 480.808C563.838 480.132 563.263 479.583 562.555 479.583V482.035ZM448.074 444.886L484.798 480.57L486.628 478.849L449.905 443.168L448.074 444.886ZM488.458 482.035H562.555V479.583H488.458V482.035ZM484.798 480.57C485.763 481.507 487.083 482.035 488.458 482.035V479.583C487.771 479.583 487.11 479.319 486.628 478.849L484.798 480.57Z" fill="#7AB8EB"/>
<path d="M464.391 572.763C465.099 572.763 465.674 572.214 465.674 571.537C465.674 570.86 465.099 570.31 464.391 570.31V572.763ZM349.91 535.614L386.634 571.298L388.464 569.577L351.74 533.896L349.91 535.614ZM390.293 572.763H464.391V570.31H390.293V572.763ZM386.634 571.298C387.599 572.235 388.917 572.763 390.293 572.763V570.31C389.605 570.31 388.946 570.047 388.464 569.577L386.634 571.298Z" fill="#97DA97"/>
<path d="M493.259 267.476C493.967 267.476 494.542 268.025 494.542 268.702C494.542 269.379 493.967 269.928 493.259 269.928V267.476ZM344.773 304.624L381.496 268.941L383.326 270.661L346.602 306.342L344.773 304.624ZM385.156 267.476H493.259V269.928H385.156V267.476ZM381.496 268.941C382.462 268.004 383.781 267.476 385.156 267.476V269.928C384.468 269.928 383.809 270.192 383.326 270.661L381.496 268.941Z" fill="#E78683"/>
<path d="M123.689 482.035C122.981 482.035 122.406 481.486 122.406 480.808C122.406 480.132 122.981 479.583 123.689 479.583V482.035ZM238.17 444.886L201.446 480.57L199.616 478.849L236.34 443.168L238.17 444.886ZM197.786 482.035H123.689V479.583H197.786V482.035ZM201.446 480.57C200.481 481.507 199.163 482.035 197.786 482.035V479.583C198.474 479.583 199.134 479.319 199.616 478.849L201.446 480.57Z" fill="#FACB86"/>
<path d="M556.14 444.027H499.677C496.134 444.027 493.262 446.772 493.262 450.157V469.774C493.262 473.161 496.134 475.904 499.677 475.904H556.14C559.684 475.904 562.555 473.161 562.555 469.774V450.157C562.555 446.772 559.684 444.027 556.14 444.027Z" fill="#7AB8EB"/>
<path d="M511.586 464.87L517.407 459.017C517.705 458.708 517.964 458.41 518.179 458.124C518.394 457.838 518.556 457.552 518.664 457.266C518.771 456.98 518.825 456.676 518.825 456.357C518.825 456.128 518.778 455.904 518.682 455.687C518.599 455.458 518.46 455.252 518.269 455.069C518.089 454.886 517.867 454.743 517.604 454.64C517.341 454.527 517.035 454.469 516.688 454.469C516.209 454.469 515.796 454.578 515.448 454.794C515.1 455.001 514.831 455.303 514.64 455.704C514.461 456.106 514.37 456.568 514.37 457.095H512.268C512.268 456.236 512.437 455.475 512.772 454.811C513.119 454.136 513.622 453.611 514.28 453.232C514.952 452.844 515.765 452.648 516.724 452.648C517.454 452.648 518.089 452.763 518.629 452.992C519.167 453.209 519.61 453.496 519.957 453.85C520.316 454.204 520.58 454.595 520.748 455.017C520.927 455.441 521.017 455.852 521.017 456.254C521.017 456.883 520.856 457.489 520.533 458.073C520.221 458.656 519.808 459.178 519.292 459.635L515.718 462.982H521.179V464.87H511.586ZM522.445 464.87L528.266 459.017C528.565 458.708 528.823 458.41 529.039 458.124C529.254 457.838 529.417 457.552 529.524 457.266C529.632 456.98 529.686 456.676 529.686 456.357C529.686 456.128 529.637 455.904 529.542 455.687C529.458 455.458 529.32 455.252 529.129 455.069C528.948 454.886 528.726 454.743 528.464 454.64C528.201 454.527 527.896 454.469 527.547 454.469C527.07 454.469 526.656 454.578 526.308 454.794C525.961 455.001 525.692 455.303 525.499 455.704C525.32 456.106 525.23 456.568 525.23 457.095H523.128C523.128 456.236 523.296 455.475 523.631 454.811C523.98 454.136 524.482 453.611 525.14 453.232C525.811 452.844 526.626 452.648 527.584 452.648C528.313 452.648 528.948 452.763 529.488 452.992C530.026 453.209 530.469 453.496 530.818 453.85C531.177 454.204 531.44 454.595 531.608 455.017C531.788 455.441 531.877 455.852 531.877 456.254C531.877 456.883 531.715 457.489 531.392 458.073C531.08 458.656 530.667 459.178 530.153 459.635L526.577 462.982H532.038V464.87H522.445ZM542.934 460.957C542.934 461.654 542.809 462.262 542.557 462.776C542.306 463.291 541.958 463.72 541.516 464.064C541.072 464.396 540.568 464.647 540.007 464.819C539.455 464.98 538.875 465.06 538.264 465.06C537.497 465.06 536.82 464.962 536.233 464.767C535.647 464.573 535.138 464.315 534.707 463.994C534.275 463.662 533.898 463.308 533.575 462.93L534.815 461.472C535.067 461.78 535.359 462.066 535.695 462.33C536.041 462.581 536.414 462.787 536.809 462.948C537.204 463.096 537.599 463.171 537.995 463.171C538.57 463.171 539.054 463.078 539.45 462.897C539.844 462.714 540.144 462.443 540.348 462.089C540.563 461.735 540.672 461.318 540.672 460.837C540.672 460.345 540.551 459.926 540.313 459.584C540.072 459.24 539.749 458.977 539.342 458.794C538.934 458.611 538.485 458.52 537.995 458.52C537.636 458.52 537.276 458.548 536.917 458.605C536.568 458.65 536.209 458.743 535.839 458.879C535.48 459.017 535.084 459.211 534.653 459.464L536.36 452.855H542.809V454.64H537.959L537.169 457.386C537.478 457.238 537.803 457.129 538.138 457.06C538.473 456.992 538.815 456.957 539.162 456.957C539.856 456.957 540.492 457.122 541.066 457.454C541.641 457.787 542.096 458.251 542.432 458.846C542.767 459.439 542.934 460.144 542.934 460.957Z" fill="white"/>
<path d="M457.975 535.368H401.512C398.324 535.368 395.738 537.838 395.738 540.885V560.502C395.738 563.549 398.324 566.02 401.512 566.02H457.975C461.164 566.02 463.749 563.549 463.749 560.502V540.885C463.749 537.838 461.164 535.368 457.975 535.368Z" fill="#97DA97"/>
<path d="M457.975 535.368H401.512C398.324 535.368 395.738 537.838 395.738 540.885V560.502C395.738 563.549 398.324 566.02 401.512 566.02H457.975C461.164 566.02 463.749 563.549 463.749 560.502V540.885C463.749 537.838 461.164 535.368 457.975 535.368Z" stroke="#97DA97"/>
<path d="M413.414 555.598L419.235 549.745C419.535 549.436 419.792 549.138 420.007 548.853C420.224 548.567 420.385 548.279 420.493 547.995C420.601 547.709 420.655 547.405 420.655 547.084C420.655 546.855 420.608 546.632 420.511 546.415C420.427 546.186 420.289 545.98 420.097 545.797C419.918 545.614 419.696 545.471 419.433 545.368C419.17 545.254 418.865 545.197 418.517 545.197C418.038 545.197 417.625 545.305 417.277 545.523C416.929 545.729 416.66 546.032 416.469 546.432C416.289 546.833 416.2 547.296 416.2 547.822H414.098C414.098 546.964 414.266 546.203 414.6 545.539C414.948 544.864 415.452 544.338 416.11 543.96C416.78 543.571 417.594 543.377 418.552 543.377C419.283 543.377 419.918 543.491 420.457 543.721C420.996 543.937 421.439 544.224 421.786 544.579C422.146 544.933 422.408 545.323 422.576 545.746C422.757 546.168 422.847 546.58 422.847 546.981C422.847 547.611 422.684 548.218 422.361 548.801C422.049 549.385 421.636 549.905 421.122 550.362L417.547 553.71H423.008V555.598H413.414ZM424.275 555.598L430.096 549.745C430.394 549.436 430.653 549.138 430.868 548.853C431.083 548.567 431.245 548.279 431.353 547.995C431.46 547.709 431.514 547.405 431.514 547.084C431.514 546.855 431.467 546.632 431.371 546.415C431.288 546.186 431.149 545.98 430.958 545.797C430.778 545.614 430.556 545.471 430.293 545.368C430.03 545.254 429.724 545.197 429.377 545.197C428.898 545.197 428.485 545.305 428.137 545.523C427.789 545.729 427.52 546.032 427.329 546.432C427.15 546.833 427.059 547.296 427.059 547.822H424.957C424.957 546.964 425.125 546.203 425.461 545.539C425.808 544.864 426.311 544.338 426.969 543.96C427.641 543.571 428.454 543.377 429.413 543.377C430.143 543.377 430.778 543.491 431.318 543.721C431.856 543.937 432.299 544.224 432.646 544.579C433.005 544.933 433.269 545.323 433.437 545.746C433.616 546.168 433.706 546.58 433.706 546.981C433.706 547.611 433.545 548.218 433.222 548.801C432.91 549.385 432.497 549.905 431.981 550.362L428.407 553.71H433.868V555.598H424.275ZM444.764 551.685C444.764 552.382 444.639 552.989 444.387 553.504C444.135 554.019 443.788 554.448 443.345 554.791C442.901 555.123 442.398 555.374 441.835 555.547C441.283 555.707 440.703 555.787 440.092 555.787C439.325 555.787 438.65 555.69 438.063 555.495C437.475 555.3 436.967 555.043 436.535 554.723C436.105 554.39 435.728 554.036 435.403 553.659L436.644 552.199C436.895 552.508 437.188 552.794 437.524 553.058C437.87 553.309 438.243 553.516 438.637 553.675C439.033 553.823 439.429 553.898 439.823 553.898C440.398 553.898 440.884 553.807 441.279 553.624C441.674 553.441 441.972 553.172 442.177 552.817C442.392 552.463 442.5 552.045 442.5 551.564C442.5 551.073 442.38 550.655 442.141 550.312C441.901 549.968 441.578 549.704 441.17 549.522C440.763 549.339 440.313 549.247 439.823 549.247C439.464 549.247 439.104 549.275 438.745 549.333C438.398 549.378 438.039 549.471 437.667 549.607C437.308 549.745 436.913 549.94 436.481 550.191L438.189 543.583H444.639V545.368H439.788L438.997 548.114C439.308 547.966 439.631 547.857 439.967 547.789C440.302 547.719 440.644 547.686 440.991 547.686C441.686 547.686 442.321 547.85 442.896 548.183C443.47 548.515 443.925 548.979 444.26 549.574C444.595 550.168 444.764 550.871 444.764 551.685Z" fill="white"/>
<path d="M488.123 274.219H431.662C428.472 274.219 425.887 276.689 425.887 279.736V299.353C425.887 302.4 428.472 304.87 431.662 304.87H488.123C491.313 304.87 493.898 302.4 493.898 299.353V279.736C493.898 276.689 491.313 274.219 488.123 274.219Z" fill="#E78683"/>
<path d="M488.123 274.219H431.662C428.472 274.219 425.887 276.689 425.887 279.736V299.353C425.887 302.4 428.472 304.87 431.662 304.87H488.123C491.313 304.87 493.898 302.4 493.898 299.353V279.736C493.898 276.689 491.313 274.219 488.123 274.219Z" stroke="#E78683"/>
<path d="M443.574 294.449L449.395 288.596C449.694 288.287 449.951 287.989 450.167 287.703C450.383 287.417 450.544 287.131 450.652 286.845C450.76 286.559 450.813 286.256 450.813 285.935C450.813 285.706 450.766 285.483 450.669 285.266C450.586 285.037 450.447 284.831 450.256 284.648C450.077 284.465 449.855 284.322 449.591 284.219C449.329 284.104 449.023 284.047 448.676 284.047C448.197 284.047 447.784 284.156 447.437 284.373C447.088 284.579 446.819 284.882 446.628 285.283C446.448 285.683 446.359 286.147 446.359 286.673H444.257C444.257 285.815 444.425 285.054 444.76 284.39C445.107 283.715 445.61 283.189 446.269 282.811C446.94 282.422 447.753 282.228 448.711 282.228C449.442 282.228 450.077 282.342 450.616 282.571C451.155 282.788 451.598 283.074 451.945 283.429C452.305 283.784 452.568 284.173 452.737 284.596C452.916 285.02 453.006 285.432 453.006 285.832C453.006 286.461 452.844 287.068 452.52 287.652C452.209 288.235 451.796 288.756 451.28 289.214L447.706 292.561H453.167V294.449H443.574ZM454.434 294.449L460.254 288.596C460.553 288.287 460.812 287.989 461.027 287.703C461.242 287.417 461.404 287.131 461.511 286.845C461.62 286.559 461.674 286.256 461.674 285.935C461.674 285.706 461.626 285.483 461.53 285.266C461.447 285.037 461.308 284.831 461.117 284.648C460.937 284.465 460.715 284.322 460.452 284.219C460.188 284.104 459.883 284.047 459.536 284.047C459.057 284.047 458.643 284.156 458.296 284.373C457.949 284.579 457.678 284.882 457.487 285.283C457.308 285.683 457.218 286.147 457.218 286.673H455.116C455.116 285.815 455.284 285.054 455.619 284.39C455.967 283.715 456.47 283.189 457.128 282.811C457.8 282.422 458.614 282.228 459.572 282.228C460.301 282.228 460.937 282.342 461.476 282.571C462.015 282.788 462.457 283.074 462.806 283.429C463.165 283.784 463.428 284.173 463.596 284.596C463.775 285.02 463.865 285.432 463.865 285.832C463.865 286.461 463.704 287.068 463.381 287.652C463.068 288.235 462.655 288.756 462.141 289.214L458.565 292.561H464.027V294.449H454.434ZM474.922 290.535C474.922 291.233 474.797 291.84 474.546 292.355C474.294 292.87 473.947 293.299 473.504 293.642C473.06 293.974 472.557 294.226 471.994 294.397C471.442 294.558 470.863 294.638 470.252 294.638C469.484 294.638 468.808 294.541 468.222 294.346C467.635 294.151 467.126 293.894 466.695 293.574C466.263 293.242 465.887 292.887 465.564 292.509L466.803 291.05C467.055 291.359 467.347 291.645 467.683 291.908C468.029 292.16 468.402 292.366 468.796 292.526C469.192 292.675 469.588 292.75 469.982 292.75C470.558 292.75 471.042 292.658 471.438 292.475C471.832 292.292 472.133 292.023 472.336 291.668C472.551 291.313 472.659 290.896 472.659 290.415C472.659 289.923 472.539 289.505 472.299 289.162C472.06 288.819 471.737 288.556 471.331 288.373C470.921 288.19 470.473 288.098 469.982 288.098C469.623 288.098 469.263 288.127 468.904 288.184C468.557 288.229 468.197 288.321 467.827 288.458C467.468 288.596 467.072 288.79 466.642 289.042L468.348 282.434H474.797V284.219H469.947L469.156 286.965C469.467 286.816 469.79 286.708 470.126 286.639C470.461 286.57 470.803 286.536 471.15 286.536C471.845 286.536 472.48 286.702 473.054 287.034C473.629 287.366 474.084 287.829 474.421 288.424C474.754 289.019 474.922 289.723 474.922 290.535Z" fill="white"/>
<path d="M186.569 443.414H130.107C126.917 443.414 124.332 445.884 124.332 448.931V468.548C124.332 471.596 126.917 474.066 130.107 474.066H186.569C189.758 474.066 192.343 471.596 192.343 468.548V448.931C192.343 445.884 189.758 443.414 186.569 443.414Z" fill="#FACB86"/>
<path d="M186.569 443.414H130.107C126.917 443.414 124.332 445.884 124.332 448.931V468.548C124.332 471.596 126.917 474.066 130.107 474.066H186.569C189.758 474.066 192.343 471.596 192.343 468.548V448.931C192.343 445.884 189.758 443.414 186.569 443.414Z" stroke="#FACB86"/>
<path d="M142.016 463.644L147.836 457.791C148.136 457.482 148.393 457.184 148.609 456.898C148.824 456.613 148.986 456.326 149.094 456.04C149.202 455.754 149.256 455.45 149.256 455.131C149.256 454.901 149.208 454.679 149.112 454.461C149.028 454.232 148.89 454.025 148.699 453.843C148.519 453.661 148.297 453.517 148.034 453.414C147.77 453.3 147.465 453.242 147.118 453.242C146.639 453.242 146.225 453.352 145.878 453.568C145.531 453.774 145.261 454.077 145.07 454.478C144.89 454.88 144.8 455.342 144.8 455.869H142.698C142.698 455.011 142.866 454.248 143.201 453.586C143.549 452.91 144.052 452.384 144.71 452.007C145.381 451.618 146.195 451.423 147.154 451.423C147.884 451.423 148.519 451.537 149.058 451.766C149.597 451.984 150.04 452.27 150.387 452.624C150.747 452.978 151.01 453.369 151.178 453.791C151.358 454.215 151.447 454.627 151.447 455.028C151.447 455.656 151.286 456.263 150.962 456.846C150.651 457.43 150.238 457.952 149.723 458.409L146.148 461.756H151.609V463.644H142.016ZM152.875 463.644L158.696 457.791C158.996 457.482 159.253 457.184 159.469 456.898C159.684 456.613 159.846 456.326 159.954 456.04C160.061 455.754 160.115 455.45 160.115 455.131C160.115 454.901 160.068 454.679 159.972 454.461C159.888 454.232 159.75 454.025 159.559 453.843C159.379 453.661 159.157 453.517 158.894 453.414C158.63 453.3 158.325 453.242 157.978 453.242C157.499 453.242 157.085 453.352 156.738 453.568C156.391 453.774 156.121 454.077 155.93 454.478C155.75 454.88 155.66 455.342 155.66 455.869H153.558C153.558 455.011 153.726 454.248 154.061 453.586C154.409 452.91 154.912 452.384 155.57 452.007C156.241 451.618 157.055 451.423 158.014 451.423C158.744 451.423 159.379 451.537 159.918 451.766C160.457 451.984 160.9 452.27 161.247 452.624C161.607 452.978 161.87 453.369 162.038 453.791C162.217 454.215 162.307 454.627 162.307 455.028C162.307 455.656 162.146 456.263 161.822 456.846C161.511 457.43 161.098 457.952 160.582 458.409L157.007 461.756H162.469V463.644H152.875ZM173.365 459.731C173.365 460.429 173.239 461.035 172.987 461.549C172.736 462.065 172.388 462.494 171.945 462.838C171.502 463.17 170.999 463.421 170.436 463.592C169.885 463.753 169.304 463.833 168.694 463.833C167.927 463.833 167.25 463.737 166.664 463.541C166.077 463.346 165.568 463.089 165.137 462.769C164.705 462.437 164.328 462.083 164.005 461.704L165.244 460.246C165.496 460.555 165.789 460.84 166.125 461.104C166.472 461.355 166.843 461.561 167.239 461.722C167.634 461.87 168.029 461.945 168.424 461.945C168.999 461.945 169.484 461.853 169.879 461.671C170.275 461.488 170.574 461.218 170.778 460.863C170.993 460.509 171.101 460.091 171.101 459.611C171.101 459.119 170.981 458.7 170.742 458.357C170.502 458.014 170.179 457.751 169.772 457.568C169.364 457.385 168.915 457.293 168.424 457.293C168.065 457.293 167.706 457.322 167.346 457.378C166.999 457.425 166.64 457.516 166.268 457.654C165.909 457.791 165.514 457.986 165.083 458.238L166.789 451.628H173.239V453.414H168.388L167.598 456.16C167.909 456.012 168.233 455.902 168.568 455.834C168.903 455.766 169.245 455.731 169.592 455.731C170.287 455.731 170.921 455.897 171.496 456.229C172.071 456.562 172.526 457.024 172.862 457.619C173.197 458.214 173.365 458.918 173.365 459.731Z" fill="white"/>
</g>
</g>
<g filter="url(#filter2_d_58_3211)">
<rect x="539" y="24" width="127.536" height="144" rx="3" fill="white" shape-rendering="crispEdges"/>
<rect x="539.5" y="24.5" width="126.536" height="143" rx="2.5" stroke="#100F0D" stroke-opacity="0.09" shape-rendering="crispEdges"/>
<rect x="555" y="40" width="19" height="19" rx="1" fill="#7AB8EB"/>
<path d="M584.16 54.168H590.8V43.8H591.68V54.168H593.04V56.76H592.256V55H583.28V43.8H584.16V54.168ZM594.84 51.528V50.808H600.312C600.312 50.3067 600.205 49.864 599.992 49.48C599.778 49.0853 599.485 48.776 599.112 48.552C598.749 48.328 598.328 48.216 597.848 48.216C597.368 48.216 596.925 48.328 596.52 48.552C596.114 48.776 595.789 49.1013 595.544 49.528C595.298 49.944 595.176 50.44 595.176 51.016L595.16 51.304C595.16 51.9227 595.272 52.4667 595.496 52.936C595.72 53.3947 596.029 53.752 596.424 54.008C596.829 54.2533 597.293 54.376 597.816 54.376C598.285 54.376 598.68 54.3067 599 54.168C599.33 54.0187 599.608 53.832 599.832 53.608C600.066 53.3733 600.264 53.1227 600.424 52.856L601.096 53.288C600.882 53.6187 600.637 53.928 600.36 54.216C600.082 54.4933 599.736 54.7227 599.32 54.904C598.904 55.0747 598.37 55.16 597.72 55.16C597.08 55.16 596.498 54.9947 595.976 54.664C595.464 54.3333 595.058 53.8747 594.76 53.288C594.461 52.7013 594.312 52.04 594.312 51.304C594.312 51.1333 594.317 50.9733 594.328 50.824C594.349 50.664 594.376 50.504 594.408 50.344C594.536 49.7787 594.754 49.2827 595.064 48.856C595.373 48.4187 595.768 48.0827 596.248 47.848C596.728 47.6027 597.261 47.48 597.848 47.48C598.488 47.48 599.064 47.6347 599.576 47.944C600.088 48.2427 600.488 48.664 600.776 49.208C601.074 49.752 601.224 50.392 601.224 51.128C601.224 51.192 601.218 51.2613 601.208 51.336C601.208 51.4 601.202 51.464 601.192 51.528H594.84ZM603.618 51.496V50.712H608.994V51.496H603.618ZM608.482 47.64H609.314V55H608.482V47.64ZM603.122 47.64H603.954V55H603.122V47.64ZM610.596 47.64H614.916V48.424H610.596V47.64ZM612.34 47.864H613.172V55H612.34V47.864ZM617.016 58.52H616.184V47.64H617.016V58.52ZM623.304 51.32C623.304 52.1093 623.144 52.792 622.824 53.368C622.515 53.944 622.088 54.3867 621.544 54.696C621.011 55.0053 620.413 55.16 619.752 55.16C619.133 55.16 618.589 54.9947 618.12 54.664C617.651 54.3227 617.283 53.864 617.016 53.288C616.76 52.7013 616.632 52.0453 616.632 51.32C616.632 50.584 616.76 49.928 617.016 49.352C617.283 48.776 617.651 48.3227 618.12 47.992C618.589 47.6507 619.133 47.48 619.752 47.48C620.413 47.48 621.011 47.6347 621.544 47.944C622.088 48.2533 622.515 48.696 622.824 49.272C623.144 49.8373 623.304 50.52 623.304 51.32ZM622.472 51.32C622.472 50.68 622.344 50.1307 622.088 49.672C621.832 49.2133 621.491 48.8667 621.064 48.632C620.637 48.3867 620.163 48.264 619.64 48.264C619.192 48.264 618.765 48.3973 618.36 48.664C617.955 48.9307 617.629 49.2933 617.384 49.752C617.139 50.2107 617.016 50.7333 617.016 51.32C617.016 51.9067 617.139 52.4293 617.384 52.888C617.629 53.3467 617.955 53.7093 618.36 53.976C618.765 54.2427 619.192 54.376 619.64 54.376C620.163 54.376 620.637 54.2587 621.064 54.024C621.491 53.7787 621.832 53.4267 622.088 52.968C622.344 52.5093 622.472 51.96 622.472 51.32ZM630.298 45.416V44.504L633.754 43.672V55H632.874V44.744L630.298 45.416Z" fill="#100F0D" fill-opacity="0.7"/>
<rect x="555" y="71" width="19" height="19" rx="1" fill="#E78683"/>
<path d="M584.16 85.168H590.8V74.8H591.68V85.168H593.04V87.76H592.256V86H583.28V74.8H584.16V85.168ZM594.84 82.528V81.808H600.312C600.312 81.3067 600.205 80.864 599.992 80.48C599.778 80.0853 599.485 79.776 599.112 79.552C598.749 79.328 598.328 79.216 597.848 79.216C597.368 79.216 596.925 79.328 596.52 79.552C596.114 79.776 595.789 80.1013 595.544 80.528C595.298 80.944 595.176 81.44 595.176 82.016L595.16 82.304C595.16 82.9227 595.272 83.4667 595.496 83.936C595.72 84.3947 596.029 84.752 596.424 85.008C596.829 85.2533 597.293 85.376 597.816 85.376C598.285 85.376 598.68 85.3067 599 85.168C599.33 85.0187 599.608 84.832 599.832 84.608C600.066 84.3733 600.264 84.1227 600.424 83.856L601.096 84.288C600.882 84.6187 600.637 84.928 600.36 85.216C600.082 85.4933 599.736 85.7227 599.32 85.904C598.904 86.0747 598.37 86.16 597.72 86.16C597.08 86.16 596.498 85.9947 595.976 85.664C595.464 85.3333 595.058 84.8747 594.76 84.288C594.461 83.7013 594.312 83.04 594.312 82.304C594.312 82.1333 594.317 81.9733 594.328 81.824C594.349 81.664 594.376 81.504 594.408 81.344C594.536 80.7787 594.754 80.2827 595.064 79.856C595.373 79.4187 595.768 79.0827 596.248 78.848C596.728 78.6027 597.261 78.48 597.848 78.48C598.488 78.48 599.064 78.6347 599.576 78.944C600.088 79.2427 600.488 79.664 600.776 80.208C601.074 80.752 601.224 81.392 601.224 82.128C601.224 82.192 601.218 82.2613 601.208 82.336C601.208 82.4 601.202 82.464 601.192 82.528H594.84ZM603.618 82.496V81.712H608.994V82.496H603.618ZM608.482 78.64H609.314V86H608.482V78.64ZM603.122 78.64H603.954V86H603.122V78.64ZM610.596 78.64H614.916V79.424H610.596V78.64ZM612.34 78.864H613.172V86H612.34V78.864ZM617.016 89.52H616.184V78.64H617.016V89.52ZM623.304 82.32C623.304 83.1093 623.144 83.792 622.824 84.368C622.515 84.944 622.088 85.3867 621.544 85.696C621.011 86.0053 620.413 86.16 619.752 86.16C619.133 86.16 618.589 85.9947 618.12 85.664C617.651 85.3227 617.283 84.864 617.016 84.288C616.76 83.7013 616.632 83.0453 616.632 82.32C616.632 81.584 616.76 80.928 617.016 80.352C617.283 79.776 617.651 79.3227 618.12 78.992C618.589 78.6507 619.133 78.48 619.752 78.48C620.413 78.48 621.011 78.6347 621.544 78.944C622.088 79.2533 622.515 79.696 622.824 80.272C623.144 80.8373 623.304 81.52 623.304 82.32ZM622.472 82.32C622.472 81.68 622.344 81.1307 622.088 80.672C621.832 80.2133 621.491 79.8667 621.064 79.632C620.637 79.3867 620.163 79.264 619.64 79.264C619.192 79.264 618.765 79.3973 618.36 79.664C617.955 79.9307 617.629 80.2933 617.384 80.752C617.139 81.2107 617.016 81.7333 617.016 82.32C617.016 82.9067 617.139 83.4293 617.384 83.888C617.629 84.3467 617.955 84.7093 618.36 84.976C618.765 85.2427 619.192 85.376 619.64 85.376C620.163 85.376 620.637 85.2587 621.064 85.024C621.491 84.7787 621.832 84.4267 622.088 83.968C622.344 83.5093 622.472 82.96 622.472 82.32ZM629.274 86L634.506 80.48C634.751 80.2027 634.97 79.9307 635.162 79.664C635.365 79.3973 635.519 79.1147 635.626 78.816C635.743 78.5067 635.802 78.176 635.802 77.824C635.802 77.5467 635.754 77.2693 635.658 76.992C635.562 76.7147 635.413 76.464 635.21 76.24C635.007 76.0053 634.751 75.8187 634.442 75.68C634.143 75.5307 633.786 75.456 633.37 75.456C632.826 75.456 632.357 75.5893 631.962 75.856C631.567 76.112 631.263 76.48 631.05 76.96C630.837 77.44 630.73 78 630.73 78.64H629.85C629.85 77.84 629.989 77.1413 630.266 76.544C630.554 75.936 630.959 75.4667 631.482 75.136C632.015 74.7947 632.645 74.624 633.37 74.624C633.957 74.624 634.458 74.7253 634.874 74.928C635.301 75.1307 635.647 75.392 635.914 75.712C636.191 76.0213 636.394 76.3627 636.522 76.736C636.65 77.0987 636.714 77.4507 636.714 77.792C636.714 78.4 636.565 78.9707 636.266 79.504C635.978 80.0373 635.621 80.5227 635.194 80.96L631.114 85.168H636.922V86H629.274Z" fill="#100F0D" fill-opacity="0.7"/>
<rect x="555" y="102" width="19" height="19" rx="1" fill="#FACB86"/>
<path d="M584.16 116.168H590.8V105.8H591.68V116.168H593.04V118.76H592.256V117H583.28V105.8H584.16V116.168ZM594.84 113.528V112.808H600.312C600.312 112.307 600.205 111.864 599.992 111.48C599.778 111.085 599.485 110.776 599.112 110.552C598.749 110.328 598.328 110.216 597.848 110.216C597.368 110.216 596.925 110.328 596.52 110.552C596.114 110.776 595.789 111.101 595.544 111.528C595.298 111.944 595.176 112.44 595.176 113.016L595.16 113.304C595.16 113.923 595.272 114.467 595.496 114.936C595.72 115.395 596.029 115.752 596.424 116.008C596.829 116.253 597.293 116.376 597.816 116.376C598.285 116.376 598.68 116.307 599 116.168C599.33 116.019 599.608 115.832 599.832 115.608C600.066 115.373 600.264 115.123 600.424 114.856L601.096 115.288C600.882 115.619 600.637 115.928 600.36 116.216C600.082 116.493 599.736 116.723 599.32 116.904C598.904 117.075 598.37 117.16 597.72 117.16C597.08 117.16 596.498 116.995 595.976 116.664C595.464 116.333 595.058 115.875 594.76 115.288C594.461 114.701 594.312 114.04 594.312 113.304C594.312 113.133 594.317 112.973 594.328 112.824C594.349 112.664 594.376 112.504 594.408 112.344C594.536 111.779 594.754 111.283 595.064 110.856C595.373 110.419 595.768 110.083 596.248 109.848C596.728 109.603 597.261 109.48 597.848 109.48C598.488 109.48 599.064 109.635 599.576 109.944C600.088 110.243 600.488 110.664 600.776 111.208C601.074 111.752 601.224 112.392 601.224 113.128C601.224 113.192 601.218 113.261 601.208 113.336C601.208 113.4 601.202 113.464 601.192 113.528H594.84ZM603.618 113.496V112.712H608.994V113.496H603.618ZM608.482 109.64H609.314V117H608.482V109.64ZM603.122 109.64H603.954V117H603.122V109.64ZM610.596 109.64H614.916V110.424H610.596V109.64ZM612.34 109.864H613.172V117H612.34V109.864ZM617.016 120.52H616.184V109.64H617.016V120.52ZM623.304 113.32C623.304 114.109 623.144 114.792 622.824 115.368C622.515 115.944 622.088 116.387 621.544 116.696C621.011 117.005 620.413 117.16 619.752 117.16C619.133 117.16 618.589 116.995 618.12 116.664C617.651 116.323 617.283 115.864 617.016 115.288C616.76 114.701 616.632 114.045 616.632 113.32C616.632 112.584 616.76 111.928 617.016 111.352C617.283 110.776 617.651 110.323 618.12 109.992C618.589 109.651 619.133 109.48 619.752 109.48C620.413 109.48 621.011 109.635 621.544 109.944C622.088 110.253 622.515 110.696 622.824 111.272C623.144 111.837 623.304 112.52 623.304 113.32ZM622.472 113.32C622.472 112.68 622.344 112.131 622.088 111.672C621.832 111.213 621.491 110.867 621.064 110.632C620.637 110.387 620.163 110.264 619.64 110.264C619.192 110.264 618.765 110.397 618.36 110.664C617.955 110.931 617.629 111.293 617.384 111.752C617.139 112.211 617.016 112.733 617.016 113.32C617.016 113.907 617.139 114.429 617.384 114.888C617.629 115.347 617.955 115.709 618.36 115.976C618.765 116.243 619.192 116.376 619.64 116.376C620.163 116.376 620.637 116.259 621.064 116.024C621.491 115.779 621.832 115.427 622.088 114.968C622.344 114.509 622.472 113.96 622.472 113.32ZM632.938 111.368V110.792C633.301 110.792 633.642 110.739 633.962 110.632C634.282 110.525 634.565 110.376 634.81 110.184C635.066 109.992 635.263 109.763 635.402 109.496C635.551 109.219 635.626 108.915 635.626 108.584C635.626 108.2 635.541 107.848 635.37 107.528C635.21 107.197 634.97 106.936 634.65 106.744C634.341 106.541 633.957 106.44 633.498 106.44C632.826 106.44 632.282 106.643 631.866 107.048C631.45 107.453 631.242 107.965 631.242 108.584H630.394C630.394 107.997 630.522 107.485 630.778 107.048C631.045 106.611 631.407 106.269 631.866 106.024C632.335 105.768 632.874 105.64 633.482 105.64C634.122 105.64 634.666 105.779 635.114 106.056C635.573 106.333 635.919 106.691 636.154 107.128C636.399 107.565 636.522 108.04 636.522 108.552C636.522 109.096 636.357 109.581 636.026 110.008C635.706 110.435 635.274 110.771 634.73 111.016C634.197 111.251 633.599 111.368 632.938 111.368ZM633.418 117.16C632.874 117.16 632.383 117.08 631.946 116.92C631.519 116.76 631.151 116.541 630.842 116.264C630.543 115.976 630.314 115.645 630.154 115.272C629.994 114.888 629.914 114.477 629.914 114.04H630.81C630.81 114.477 630.911 114.872 631.114 115.224C631.327 115.565 631.631 115.837 632.026 116.04C632.421 116.232 632.885 116.328 633.418 116.328C633.93 116.328 634.373 116.232 634.746 116.04C635.13 115.837 635.423 115.565 635.626 115.224C635.839 114.872 635.946 114.467 635.946 114.008C635.946 113.603 635.855 113.251 635.674 112.952C635.503 112.643 635.269 112.387 634.97 112.184C634.682 111.981 634.362 111.832 634.01 111.736C633.658 111.629 633.301 111.576 632.938 111.576V111C633.429 111 633.903 111.064 634.362 111.192C634.831 111.309 635.253 111.496 635.626 111.752C635.999 111.997 636.293 112.317 636.506 112.712C636.73 113.107 636.842 113.571 636.842 114.104C636.842 114.712 636.693 115.245 636.394 115.704C636.106 116.163 635.706 116.52 635.194 116.776C634.682 117.032 634.09 117.16 633.418 117.16Z" fill="#100F0D" fill-opacity="0.7"/>
<rect x="555" y="133" width="19" height="19" rx="1" fill="#97DA97"/>
<path d="M584.16 147.168H590.8V136.8H591.68V147.168H593.04V149.76H592.256V148H583.28V136.8H584.16V147.168ZM594.84 144.528V143.808H600.312C600.312 143.307 600.205 142.864 599.992 142.48C599.778 142.085 599.485 141.776 599.112 141.552C598.749 141.328 598.328 141.216 597.848 141.216C597.368 141.216 596.925 141.328 596.52 141.552C596.114 141.776 595.789 142.101 595.544 142.528C595.298 142.944 595.176 143.44 595.176 144.016L595.16 144.304C595.16 144.923 595.272 145.467 595.496 145.936C595.72 146.395 596.029 146.752 596.424 147.008C596.829 147.253 597.293 147.376 597.816 147.376C598.285 147.376 598.68 147.307 599 147.168C599.33 147.019 599.608 146.832 599.832 146.608C600.066 146.373 600.264 146.123 600.424 145.856L601.096 146.288C600.882 146.619 600.637 146.928 600.36 147.216C600.082 147.493 599.736 147.723 599.32 147.904C598.904 148.075 598.37 148.16 597.72 148.16C597.08 148.16 596.498 147.995 595.976 147.664C595.464 147.333 595.058 146.875 594.76 146.288C594.461 145.701 594.312 145.04 594.312 144.304C594.312 144.133 594.317 143.973 594.328 143.824C594.349 143.664 594.376 143.504 594.408 143.344C594.536 142.779 594.754 142.283 595.064 141.856C595.373 141.419 595.768 141.083 596.248 140.848C596.728 140.603 597.261 140.48 597.848 140.48C598.488 140.48 599.064 140.635 599.576 140.944C600.088 141.243 600.488 141.664 600.776 142.208C601.074 142.752 601.224 143.392 601.224 144.128C601.224 144.192 601.218 144.261 601.208 144.336C601.208 144.4 601.202 144.464 601.192 144.528H594.84ZM603.618 144.496V143.712H608.994V144.496H603.618ZM608.482 140.64H609.314V148H608.482V140.64ZM603.122 140.64H603.954V148H603.122V140.64ZM610.596 140.64H614.916V141.424H610.596V140.64ZM612.34 140.864H613.172V148H612.34V140.864ZM617.016 151.52H616.184V140.64H617.016V151.52ZM623.304 144.32C623.304 145.109 623.144 145.792 622.824 146.368C622.515 146.944 622.088 147.387 621.544 147.696C621.011 148.005 620.413 148.16 619.752 148.16C619.133 148.16 618.589 147.995 618.12 147.664C617.651 147.323 617.283 146.864 617.016 146.288C616.76 145.701 616.632 145.045 616.632 144.32C616.632 143.584 616.76 142.928 617.016 142.352C617.283 141.776 617.651 141.323 618.12 140.992C618.589 140.651 619.133 140.48 619.752 140.48C620.413 140.48 621.011 140.635 621.544 140.944C622.088 141.253 622.515 141.696 622.824 142.272C623.144 142.837 623.304 143.52 623.304 144.32ZM622.472 144.32C622.472 143.68 622.344 143.131 622.088 142.672C621.832 142.213 621.491 141.867 621.064 141.632C620.637 141.387 620.163 141.264 619.64 141.264C619.192 141.264 618.765 141.397 618.36 141.664C617.955 141.931 617.629 142.293 617.384 142.752C617.139 143.211 617.016 143.733 617.016 144.32C617.016 144.907 617.139 145.429 617.384 145.888C617.629 146.347 617.955 146.709 618.36 146.976C618.765 147.243 619.192 147.376 619.64 147.376C620.163 147.376 620.637 147.259 621.064 147.024C621.491 146.779 621.832 146.427 622.088 145.968C622.344 145.509 622.472 144.96 622.472 144.32ZM629.274 145.76L635.45 136.8H635.786V148H634.906V145.408V145.264V138.832L630.746 144.976H635.274H635.45H637.546V145.76H629.274Z" fill="#100F0D" fill-opacity="0.7"/>
</g>
<g filter="url(#filter3_d_58_3211)">
<rect x="204" y="658.607" width="440.436" height="56.393" rx="3" fill="white" shape-rendering="crispEdges"/>
<rect x="204.5" y="659.107" width="439.436" height="55.393" rx="2.5" stroke="#100F0D" stroke-opacity="0.09" shape-rendering="crispEdges"/>
<rect x="210" y="665.803" width="221" height="42" rx="2" fill="#DEDFDF"/>
<path d="M243.848 687.463V686.343H249.77V687.463H243.848ZM249.77 686.903C249.77 686.138 249.602 685.471 249.266 684.901C248.93 684.323 248.482 683.87 247.922 683.543C247.371 683.217 246.774 683.053 246.13 683.053C245.673 683.053 245.248 683.114 244.856 683.235C244.464 683.357 244.109 683.529 243.792 683.753C243.484 683.968 243.213 684.22 242.98 684.509V682.941C243.391 682.577 243.839 682.307 244.324 682.129C244.819 681.952 245.421 681.863 246.13 681.863C246.811 681.863 247.446 681.989 248.034 682.241C248.631 682.484 249.154 682.834 249.602 683.291C250.05 683.739 250.4 684.271 250.652 684.887C250.904 685.503 251.03 686.175 251.03 686.903C251.03 687.631 250.904 688.303 250.652 688.919C250.4 689.535 250.05 690.072 249.602 690.529C249.154 690.977 248.631 691.327 248.034 691.579C247.446 691.822 246.811 691.943 246.13 691.943C245.421 691.943 244.819 691.855 244.324 691.677C243.839 691.5 243.391 691.229 242.98 690.865V689.297C243.213 689.587 243.484 689.843 243.792 690.067C244.109 690.282 244.464 690.45 244.856 690.571C245.248 690.693 245.673 690.753 246.13 690.753C246.774 690.753 247.371 690.59 247.922 690.263C248.482 689.937 248.93 689.484 249.266 688.905C249.602 688.327 249.77 687.659 249.77 686.903ZM255.126 683.963H256.246V693.203H255.126V683.963ZM252.074 688.583C252.074 687.93 252.223 687.351 252.522 686.847C252.821 686.343 253.241 685.947 253.782 685.657C254.333 685.368 254.967 685.223 255.686 685.223C256.414 685.223 257.049 685.368 257.59 685.657C258.131 685.947 258.551 686.343 258.85 686.847C259.149 687.351 259.298 687.93 259.298 688.583C259.298 689.227 259.149 689.806 258.85 690.319C258.551 690.823 258.131 691.22 257.59 691.509C257.049 691.799 256.414 691.943 255.686 691.943C254.967 691.943 254.333 691.799 253.782 691.509C253.241 691.22 252.821 690.823 252.522 690.319C252.223 689.806 252.074 689.227 252.074 688.583ZM253.208 688.583C253.208 689.031 253.306 689.428 253.502 689.773C253.707 690.119 253.992 690.394 254.356 690.599C254.729 690.795 255.173 690.893 255.686 690.893C256.199 690.893 256.638 690.795 257.002 690.599C257.375 690.394 257.66 690.119 257.856 689.773C258.061 689.428 258.164 689.031 258.164 688.583C258.164 688.135 258.061 687.739 257.856 687.393C257.66 687.039 257.375 686.763 257.002 686.567C256.638 686.371 256.199 686.273 255.686 686.273C255.173 686.273 254.729 686.371 254.356 686.567C253.992 686.763 253.707 687.039 253.502 687.393C253.306 687.739 253.208 688.135 253.208 688.583ZM263.329 683.963H264.449V693.203H263.329V683.963ZM260.277 688.583C260.277 687.93 260.426 687.351 260.725 686.847C261.024 686.343 261.444 685.947 261.985 685.657C262.536 685.368 263.17 685.223 263.889 685.223C264.617 685.223 265.252 685.368 265.793 685.657C266.334 685.947 266.754 686.343 267.053 686.847C267.352 687.351 267.501 687.93 267.501 688.583C267.501 689.227 267.352 689.806 267.053 690.319C266.754 690.823 266.334 691.22 265.793 691.509C265.252 691.799 264.617 691.943 263.889 691.943C263.17 691.943 262.536 691.799 261.985 691.509C261.444 691.22 261.024 690.823 260.725 690.319C260.426 689.806 260.277 689.227 260.277 688.583ZM261.411 688.583C261.411 689.031 261.509 689.428 261.705 689.773C261.91 690.119 262.195 690.394 262.559 690.599C262.932 690.795 263.376 690.893 263.889 690.893C264.402 690.893 264.841 690.795 265.205 690.599C265.578 690.394 265.863 690.119 266.059 689.773C266.264 689.428 266.367 689.031 266.367 688.583C266.367 688.135 266.264 687.739 266.059 687.393C265.863 687.039 265.578 686.763 265.205 686.567C264.841 686.371 264.402 686.273 263.889 686.273C263.376 686.273 262.932 686.371 262.559 686.567C262.195 686.763 261.91 687.039 261.705 687.393C261.509 687.739 261.411 688.135 261.411 688.583ZM269.194 688.863V687.911H273.492C273.455 687.575 273.362 687.281 273.212 687.029C273.072 686.768 272.872 686.567 272.61 686.427C272.358 686.278 272.046 686.203 271.672 686.203C271.299 686.203 270.958 686.283 270.65 686.441C270.342 686.6 270.095 686.829 269.908 687.127C269.731 687.417 269.642 687.762 269.642 688.163L269.614 688.583C269.614 689.078 269.698 689.498 269.866 689.843C270.034 690.189 270.272 690.45 270.58 690.627C270.888 690.805 271.252 690.893 271.672 690.893C271.99 690.893 272.27 690.847 272.512 690.753C272.764 690.651 272.988 690.515 273.184 690.347C273.38 690.17 273.548 689.965 273.688 689.731L274.598 690.305C274.384 690.632 274.146 690.921 273.884 691.173C273.623 691.416 273.306 691.607 272.932 691.747C272.559 691.878 272.092 691.943 271.532 691.943C270.954 691.943 270.431 691.799 269.964 691.509C269.507 691.22 269.143 690.823 268.872 690.319C268.611 689.806 268.48 689.227 268.48 688.583C268.48 688.462 268.485 688.345 268.494 688.233C268.504 688.121 268.518 688.009 268.536 687.897C268.63 687.365 268.816 686.899 269.096 686.497C269.376 686.096 269.736 685.783 270.174 685.559C270.622 685.335 271.122 685.223 271.672 685.223C272.279 685.223 272.811 685.359 273.268 685.629C273.726 685.9 274.08 686.283 274.332 686.777C274.584 687.263 274.71 687.846 274.71 688.527C274.71 688.583 274.71 688.639 274.71 688.695C274.71 688.751 274.706 688.807 274.696 688.863H269.194ZM276.175 685.363H277.295V691.803H276.175V685.363ZM279.675 685.363H281.075L278.275 688.023L281.355 691.803H279.955L276.875 688.023L279.675 685.363ZM281.431 685.363H285.211V686.413H281.431V685.363ZM282.761 685.643H283.881V691.803H282.761V685.643ZM291.725 686.483L286.405 692.293L286.475 690.683L291.795 684.873L291.725 686.483ZM287.525 685.363V690.753L286.405 692.293V685.363H287.525ZM291.795 684.873V691.803H290.675V686.413L291.795 684.873ZM294.622 688.443H296.484C296.932 688.443 297.333 688.49 297.688 688.583C298.043 688.677 298.323 688.84 298.528 689.073C298.733 689.307 298.836 689.633 298.836 690.053C298.836 690.539 298.673 690.954 298.346 691.299C298.029 691.635 297.501 691.803 296.764 691.803H294.622V690.823H296.484C296.904 690.823 297.212 690.735 297.408 690.557C297.613 690.38 297.716 690.165 297.716 689.913C297.716 689.783 297.688 689.666 297.632 689.563C297.585 689.461 297.511 689.367 297.408 689.283C297.315 689.199 297.189 689.139 297.03 689.101C296.881 689.055 296.699 689.031 296.484 689.031H294.622V688.443ZM294.622 688.723V688.065H296.344C296.512 688.065 296.661 688.047 296.792 688.009C296.932 687.963 297.049 687.897 297.142 687.813C297.235 687.729 297.305 687.636 297.352 687.533C297.408 687.421 297.436 687.305 297.436 687.183C297.436 686.931 297.338 686.731 297.142 686.581C296.946 686.423 296.68 686.343 296.344 686.343H294.622V685.363H296.344C296.745 685.363 297.109 685.424 297.436 685.545C297.772 685.657 298.043 685.844 298.248 686.105C298.453 686.357 298.556 686.693 298.556 687.113C298.556 687.477 298.453 687.781 298.248 688.023C298.043 688.257 297.772 688.434 297.436 688.555C297.109 688.667 296.745 688.723 296.344 688.723H294.622ZM293.964 685.363H295.084V691.803H293.964V685.363ZM300.966 688.933V687.883H305.726V688.933H300.966ZM304.998 685.363H306.118V691.803H304.998V685.363ZM300.308 685.363H301.428V691.803H300.308V685.363ZM307.664 688.583C307.664 687.93 307.808 687.351 308.098 686.847C308.396 686.343 308.798 685.947 309.302 685.657C309.806 685.368 310.37 685.223 310.996 685.223C311.63 685.223 312.195 685.368 312.69 685.657C313.194 685.947 313.59 686.343 313.88 686.847C314.178 687.351 314.328 687.93 314.328 688.583C314.328 689.227 314.178 689.806 313.88 690.319C313.59 690.823 313.194 691.22 312.69 691.509C312.195 691.799 311.63 691.943 310.996 691.943C310.37 691.943 309.806 691.799 309.302 691.509C308.798 691.22 308.396 690.823 308.098 690.319C307.808 689.806 307.664 689.227 307.664 688.583ZM308.798 688.583C308.798 689.031 308.891 689.428 309.078 689.773C309.274 690.119 309.535 690.394 309.862 690.599C310.198 690.795 310.576 690.893 310.996 690.893C311.416 690.893 311.789 690.795 312.116 690.599C312.452 690.394 312.713 690.119 312.9 689.773C313.096 689.428 313.194 689.031 313.194 688.583C313.194 688.135 313.096 687.739 312.9 687.393C312.713 687.039 312.452 686.763 312.116 686.567C311.789 686.371 311.416 686.273 310.996 686.273C310.576 686.273 310.198 686.371 309.862 686.567C309.535 686.763 309.274 687.039 309.078 687.393C308.891 687.739 308.798 688.135 308.798 688.583ZM316.02 688.863V687.911H320.318C320.281 687.575 320.188 687.281 320.038 687.029C319.898 686.768 319.698 686.567 319.436 686.427C319.184 686.278 318.872 686.203 318.498 686.203C318.125 686.203 317.784 686.283 317.476 686.441C317.168 686.6 316.921 686.829 316.734 687.127C316.557 687.417 316.468 687.762 316.468 688.163L316.44 688.583C316.44 689.078 316.524 689.498 316.692 689.843C316.86 690.189 317.098 690.45 317.406 690.627C317.714 690.805 318.078 690.893 318.498 690.893C318.816 690.893 319.096 690.847 319.338 690.753C319.59 690.651 319.814 690.515 320.01 690.347C320.206 690.17 320.374 689.965 320.514 689.731L321.424 690.305C321.21 690.632 320.972 690.921 320.71 691.173C320.449 691.416 320.132 691.607 319.758 691.747C319.385 691.878 318.918 691.943 318.358 691.943C317.78 691.943 317.257 691.799 316.79 691.509C316.333 691.22 315.969 690.823 315.698 690.319C315.437 689.806 315.306 689.227 315.306 688.583C315.306 688.462 315.311 688.345 315.32 688.233C315.33 688.121 315.344 688.009 315.362 687.897C315.456 687.365 315.642 686.899 315.922 686.497C316.202 686.096 316.562 685.783 317 685.559C317.448 685.335 317.948 685.223 318.498 685.223C319.105 685.223 319.637 685.359 320.094 685.629C320.552 685.9 320.906 686.283 321.158 686.777C321.41 687.263 321.536 687.846 321.536 688.527C321.536 688.583 321.536 688.639 321.536 688.695C321.536 688.751 321.532 688.807 321.522 688.863H316.02ZM332.379 685.363L328.179 694.883H326.919L328.683 690.893L326.219 685.363H327.549L329.593 690.403L329.131 690.347L331.119 685.363H332.379ZM338.685 685.363V691.803H337.565V686.413H334.555V691.803H333.435V685.363H338.685ZM341.84 694.883H340.72V685.363H341.84V694.883ZM347.23 688.583C347.23 689.274 347.086 689.871 346.796 690.375C346.507 690.879 346.12 691.267 345.634 691.537C345.158 691.808 344.626 691.943 344.038 691.943C343.506 691.943 343.035 691.808 342.624 691.537C342.223 691.267 341.906 690.879 341.672 690.375C341.448 689.871 341.336 689.274 341.336 688.583C341.336 687.883 341.448 687.286 341.672 686.791C341.906 686.287 342.223 685.9 342.624 685.629C343.035 685.359 343.506 685.223 344.038 685.223C344.626 685.223 345.158 685.359 345.634 685.629C346.12 685.9 346.507 686.287 346.796 686.791C347.086 687.286 347.23 687.883 347.23 688.583ZM346.096 688.583C346.096 688.089 345.994 687.669 345.788 687.323C345.592 686.978 345.326 686.717 344.99 686.539C344.664 686.362 344.3 686.273 343.898 686.273C343.572 686.273 343.25 686.362 342.932 686.539C342.615 686.717 342.354 686.978 342.148 687.323C341.943 687.669 341.84 688.089 341.84 688.583C341.84 689.078 341.943 689.498 342.148 689.843C342.354 690.189 342.615 690.45 342.932 690.627C343.25 690.805 343.572 690.893 343.898 690.893C344.3 690.893 344.664 690.805 344.99 690.627C345.326 690.45 345.592 690.189 345.788 689.843C345.994 689.498 346.096 689.078 346.096 688.583ZM349.279 689.913C349.279 690.137 349.339 690.329 349.461 690.487C349.582 690.637 349.745 690.753 349.951 690.837C350.156 690.912 350.385 690.949 350.637 690.949C351.01 690.949 351.341 690.893 351.631 690.781C351.92 690.669 352.144 690.492 352.303 690.249C352.471 690.007 352.555 689.685 352.555 689.283L352.779 689.983C352.779 690.394 352.667 690.749 352.443 691.047C352.228 691.337 351.939 691.561 351.575 691.719C351.211 691.869 350.805 691.943 350.357 691.943C349.955 691.943 349.587 691.869 349.251 691.719C348.915 691.57 348.644 691.351 348.439 691.061C348.243 690.763 348.145 690.394 348.145 689.955C348.145 689.498 348.257 689.111 348.481 688.793C348.705 688.476 349.022 688.233 349.433 688.065C349.843 687.888 350.329 687.799 350.889 687.799C351.299 687.799 351.649 687.855 351.939 687.967C352.237 688.07 352.475 688.191 352.653 688.331C352.83 688.462 352.951 688.569 353.017 688.653V689.311C352.699 689.087 352.377 688.924 352.051 688.821C351.724 688.709 351.355 688.653 350.945 688.653C350.571 688.653 350.259 688.705 350.007 688.807C349.764 688.91 349.582 689.055 349.461 689.241C349.339 689.428 349.279 689.652 349.279 689.913ZM349.279 686.875L348.733 686.021C348.975 685.844 349.302 685.667 349.713 685.489C350.123 685.312 350.618 685.223 351.197 685.223C351.691 685.223 352.121 685.303 352.485 685.461C352.858 685.611 353.147 685.83 353.353 686.119C353.567 686.409 353.675 686.763 353.675 687.183V691.803H352.555V687.183C352.555 686.857 352.415 686.614 352.135 686.455C351.864 686.287 351.551 686.203 351.197 686.203C350.889 686.203 350.609 686.245 350.357 686.329C350.105 686.404 349.885 686.497 349.699 686.609C349.521 686.712 349.381 686.801 349.279 686.875ZM356.228 688.443H358.09C358.538 688.443 358.939 688.49 359.294 688.583C359.648 688.677 359.928 688.84 360.134 689.073C360.339 689.307 360.442 689.633 360.442 690.053C360.442 690.539 360.278 690.954 359.952 691.299C359.634 691.635 359.107 691.803 358.37 691.803H356.228V690.823H358.09C358.51 690.823 358.818 690.735 359.014 690.557C359.219 690.38 359.322 690.165 359.322 689.913C359.322 689.783 359.294 689.666 359.238 689.563C359.191 689.461 359.116 689.367 359.014 689.283C358.92 689.199 358.794 689.139 358.636 689.101C358.486 689.055 358.304 689.031 358.09 689.031H356.228V688.443ZM356.228 688.723V688.065H357.95C358.118 688.065 358.267 688.047 358.398 688.009C358.538 687.963 358.654 687.897 358.748 687.813C358.841 687.729 358.911 687.636 358.958 687.533C359.014 687.421 359.042 687.305 359.042 687.183C359.042 686.931 358.944 686.731 358.748 686.581C358.552 686.423 358.286 686.343 357.95 686.343H356.228V685.363H357.95C358.351 685.363 358.715 685.424 359.042 685.545C359.378 685.657 359.648 685.844 359.854 686.105C360.059 686.357 360.162 686.693 360.162 687.113C360.162 687.477 360.059 687.781 359.854 688.023C359.648 688.257 359.378 688.434 359.042 688.555C358.715 688.667 358.351 688.723 357.95 688.723H356.228ZM355.57 685.363H356.69V691.803H355.57V685.363ZM367.555 685.363V691.803H366.435V686.413H363.145V689.563C363.145 690.067 363.066 690.487 362.907 690.823C362.758 691.15 362.525 691.397 362.207 691.565C361.89 691.724 361.489 691.803 361.003 691.803V690.781C361.283 690.781 361.521 690.693 361.717 690.515C361.923 690.338 362.025 690.021 362.025 689.563V685.363H367.555ZM369.874 688.863V687.911H374.172C374.135 687.575 374.041 687.281 373.892 687.029C373.752 686.768 373.551 686.567 373.29 686.427C373.038 686.278 372.725 686.203 372.352 686.203C371.979 686.203 371.638 686.283 371.33 686.441C371.022 686.6 370.775 686.829 370.588 687.127C370.411 687.417 370.322 687.762 370.322 688.163L370.294 688.583C370.294 689.078 370.378 689.498 370.546 689.843C370.714 690.189 370.952 690.45 371.26 690.627C371.568 690.805 371.932 690.893 372.352 690.893C372.669 690.893 372.949 690.847 373.192 690.753C373.444 690.651 373.668 690.515 373.864 690.347C374.06 690.17 374.228 689.965 374.368 689.731L375.278 690.305C375.063 690.632 374.825 690.921 374.564 691.173C374.303 691.416 373.985 691.607 373.612 691.747C373.239 691.878 372.772 691.943 372.212 691.943C371.633 691.943 371.111 691.799 370.644 691.509C370.187 691.22 369.823 690.823 369.552 690.319C369.291 689.806 369.16 689.227 369.16 688.583C369.16 688.462 369.165 688.345 369.174 688.233C369.183 688.121 369.197 688.009 369.216 687.897C369.309 687.365 369.496 686.899 369.776 686.497C370.056 686.096 370.415 685.783 370.854 685.559C371.302 685.335 371.801 685.223 372.352 685.223C372.959 685.223 373.491 685.359 373.948 685.629C374.405 685.9 374.76 686.283 375.012 686.777C375.264 687.263 375.39 687.846 375.39 688.527C375.39 688.583 375.39 688.639 375.39 688.695C375.39 688.751 375.385 688.807 375.376 688.863H369.874ZM377.583 688.933V687.883H382.343V688.933H377.583ZM381.615 685.363H382.735V691.803H381.615V685.363ZM376.925 685.363H378.045V691.803H376.925V685.363ZM390.231 686.483L384.911 692.293L384.981 690.683L390.301 684.873L390.231 686.483ZM386.031 685.363V690.753L384.911 692.293V685.363H386.031ZM390.301 684.873V691.803H389.181V686.413L390.301 684.873ZM392.624 688.863V687.911H396.922C396.885 687.575 396.791 687.281 396.642 687.029C396.502 686.768 396.301 686.567 396.04 686.427C395.788 686.278 395.475 686.203 395.102 686.203C394.729 686.203 394.388 686.283 394.08 686.441C393.772 686.6 393.525 686.829 393.338 687.127C393.161 687.417 393.072 687.762 393.072 688.163L393.044 688.583C393.044 689.078 393.128 689.498 393.296 689.843C393.464 690.189 393.702 690.45 394.01 690.627C394.318 690.805 394.682 690.893 395.102 690.893C395.419 690.893 395.699 690.847 395.942 690.753C396.194 690.651 396.418 690.515 396.614 690.347C396.81 690.17 396.978 689.965 397.118 689.731L398.028 690.305C397.813 690.632 397.575 690.921 397.314 691.173C397.053 691.416 396.735 691.607 396.362 691.747C395.989 691.878 395.522 691.943 394.962 691.943C394.383 691.943 393.861 691.799 393.394 691.509C392.937 691.22 392.573 690.823 392.302 690.319C392.041 689.806 391.91 689.227 391.91 688.583C391.91 688.462 391.915 688.345 391.924 688.233C391.933 688.121 391.947 688.009 391.966 687.897C392.059 687.365 392.246 686.899 392.526 686.497C392.806 686.096 393.165 685.783 393.604 685.559C394.052 685.335 394.551 685.223 395.102 685.223C395.709 685.223 396.241 685.359 396.698 685.629C397.155 685.9 397.51 686.283 397.762 686.777C398.014 687.263 398.14 687.846 398.14 688.527C398.14 688.583 398.14 688.639 398.14 688.695C398.14 688.751 398.135 688.807 398.126 688.863H392.624Z" fill="black"/>
<path d="M472.352 682.703L464.176 692.293L464.218 691.103L472.394 681.513L472.352 682.703ZM464.946 682.003V691.243L464.176 692.293V682.003H464.946ZM472.394 681.513V691.803H471.624V682.549L472.394 681.513ZM475.052 688.737V688.051H479.756V688.737H475.052ZM479.308 685.363H480.036V691.803H479.308V685.363ZM474.618 685.363H475.346V691.803H474.618V685.363ZM482.306 688.583C482.306 689.106 482.418 689.568 482.642 689.969C482.866 690.371 483.169 690.688 483.552 690.921C483.944 691.145 484.383 691.257 484.868 691.257C485.213 691.257 485.535 691.206 485.834 691.103C486.133 691.001 486.389 690.87 486.604 690.711C486.828 690.543 486.987 690.375 487.08 690.207V691.117C486.884 691.351 486.581 691.547 486.17 691.705C485.769 691.864 485.335 691.943 484.868 691.943C484.243 691.943 483.683 691.799 483.188 691.509C482.693 691.22 482.297 690.823 481.998 690.319C481.709 689.806 481.564 689.227 481.564 688.583C481.564 687.93 481.709 687.351 481.998 686.847C482.297 686.343 482.693 685.947 483.188 685.657C483.683 685.368 484.243 685.223 484.868 685.223C485.335 685.223 485.769 685.307 486.17 685.475C486.581 685.634 486.884 685.825 487.08 686.049V686.959C486.987 686.782 486.828 686.614 486.604 686.455C486.389 686.297 486.133 686.166 485.834 686.063C485.535 685.961 485.213 685.909 484.868 685.909C484.383 685.909 483.944 686.026 483.552 686.259C483.169 686.483 482.866 686.796 482.642 687.197C482.418 687.599 482.306 688.061 482.306 688.583ZM487.843 685.363H491.623V686.049H487.843V685.363ZM489.369 685.559H490.097V691.803H489.369V685.559ZM493.461 694.883H492.733V685.363H493.461V694.883ZM498.963 688.583C498.963 689.274 498.823 689.871 498.543 690.375C498.273 690.879 497.899 691.267 497.423 691.537C496.957 691.808 496.434 691.943 495.855 691.943C495.314 691.943 494.838 691.799 494.427 691.509C494.017 691.211 493.695 690.809 493.461 690.305C493.237 689.792 493.125 689.218 493.125 688.583C493.125 687.939 493.237 687.365 493.461 686.861C493.695 686.357 494.017 685.961 494.427 685.671C494.838 685.373 495.314 685.223 495.855 685.223C496.434 685.223 496.957 685.359 497.423 685.629C497.899 685.9 498.273 686.287 498.543 686.791C498.823 687.286 498.963 687.883 498.963 688.583ZM498.235 688.583C498.235 688.023 498.123 687.543 497.899 687.141C497.675 686.74 497.377 686.437 497.003 686.231C496.63 686.017 496.215 685.909 495.757 685.909C495.365 685.909 494.992 686.026 494.637 686.259C494.283 686.493 493.998 686.81 493.783 687.211C493.569 687.613 493.461 688.07 493.461 688.583C493.461 689.097 493.569 689.554 493.783 689.955C493.998 690.357 494.283 690.674 494.637 690.907C494.992 691.141 495.365 691.257 495.757 691.257C496.215 691.257 496.63 691.155 497.003 690.949C497.377 690.735 497.675 690.427 497.899 690.025C498.123 689.624 498.235 689.143 498.235 688.583ZM505.497 685.363L501.297 694.883H500.485L502.137 691.145L499.533 685.363H500.401L502.739 690.851L502.403 690.823L504.685 685.363H505.497ZM513.245 691.803L511.999 686.189L512.391 684.873L514.071 691.803H513.245ZM509.619 691.173L512.391 684.873L512.461 686.441L509.871 692.237L509.619 691.173ZM509.871 692.237L507.323 686.441L507.393 684.873L510.123 691.173L509.871 692.237ZM505.713 691.803L507.393 684.873L507.785 686.189L506.553 691.803H505.713ZM515.154 688.765V688.135H519.942C519.942 687.697 519.849 687.309 519.662 686.973C519.476 686.628 519.219 686.357 518.892 686.161C518.575 685.965 518.206 685.867 517.786 685.867C517.366 685.867 516.979 685.965 516.624 686.161C516.27 686.357 515.985 686.642 515.77 687.015C515.556 687.379 515.448 687.813 515.448 688.317L515.434 688.569C515.434 689.111 515.532 689.587 515.728 689.997C515.924 690.399 516.195 690.711 516.54 690.935C516.895 691.15 517.301 691.257 517.758 691.257C518.169 691.257 518.514 691.197 518.794 691.075C519.084 690.945 519.326 690.781 519.522 690.585C519.728 690.38 519.9 690.161 520.04 689.927L520.628 690.305C520.442 690.595 520.227 690.865 519.984 691.117C519.742 691.36 519.438 691.561 519.074 691.719C518.71 691.869 518.244 691.943 517.674 691.943C517.114 691.943 516.606 691.799 516.148 691.509C515.7 691.22 515.346 690.819 515.084 690.305C514.823 689.792 514.692 689.213 514.692 688.569C514.692 688.42 514.697 688.28 514.706 688.149C514.725 688.009 514.748 687.869 514.776 687.729C514.888 687.235 515.08 686.801 515.35 686.427C515.621 686.045 515.966 685.751 516.386 685.545C516.806 685.331 517.273 685.223 517.786 685.223C518.346 685.223 518.85 685.359 519.298 685.629C519.746 685.891 520.096 686.259 520.348 686.735C520.61 687.211 520.74 687.771 520.74 688.415C520.74 688.471 520.736 688.532 520.726 688.597C520.726 688.653 520.722 688.709 520.712 688.765H515.154ZM522.836 688.737V688.051H527.54V688.737H522.836ZM527.092 685.363H527.82V691.803H527.092V685.363ZM522.402 685.363H523.13V691.803H522.402V685.363ZM528.941 685.363H532.721V686.049H528.941V685.363ZM530.467 685.559H531.195V691.803H530.467V685.559ZM539.515 685.363H540.243V691.803H539.515V685.363ZM533.845 685.363H534.573V691.803H533.845V685.363ZM534.251 688.443V687.799H536.113C536.776 687.799 537.331 687.963 537.779 688.289C538.236 688.607 538.465 689.111 538.465 689.801C538.465 690.259 538.362 690.637 538.157 690.935C537.952 691.234 537.672 691.453 537.317 691.593C536.962 691.733 536.561 691.803 536.113 691.803H534.251V691.159H536.113C536.44 691.159 536.724 691.113 536.967 691.019C537.21 690.917 537.396 690.767 537.527 690.571C537.667 690.366 537.737 690.109 537.737 689.801C537.737 689.353 537.588 689.017 537.289 688.793C537 688.56 536.608 688.443 536.113 688.443H534.251ZM551.404 685.363V691.803H550.676V686.049H547.274V691.803H546.546V685.363H551.404ZM554.219 694.883H553.491V685.363H554.219V694.883ZM559.721 688.583C559.721 689.274 559.581 689.871 559.301 690.375C559.03 690.879 558.657 691.267 558.181 691.537C557.714 691.808 557.192 691.943 556.613 691.943C556.072 691.943 555.596 691.799 555.185 691.509C554.774 691.211 554.452 690.809 554.219 690.305C553.995 689.792 553.883 689.218 553.883 688.583C553.883 687.939 553.995 687.365 554.219 686.861C554.452 686.357 554.774 685.961 555.185 685.671C555.596 685.373 556.072 685.223 556.613 685.223C557.192 685.223 557.714 685.359 558.181 685.629C558.657 685.9 559.03 686.287 559.301 686.791C559.581 687.286 559.721 687.883 559.721 688.583ZM558.993 688.583C558.993 688.023 558.881 687.543 558.657 687.141C558.433 686.74 558.134 686.437 557.761 686.231C557.388 686.017 556.972 685.909 556.515 685.909C556.123 685.909 555.75 686.026 555.395 686.259C555.04 686.493 554.756 686.81 554.541 687.211C554.326 687.613 554.219 688.07 554.219 688.583C554.219 689.097 554.326 689.554 554.541 689.955C554.756 690.357 555.04 690.674 555.395 690.907C555.75 691.141 556.123 691.257 556.515 691.257C556.972 691.257 557.388 691.155 557.761 690.949C558.134 690.735 558.433 690.427 558.657 690.025C558.881 689.624 558.993 689.143 558.993 688.583ZM560.985 688.583C560.985 687.93 561.13 687.351 561.419 686.847C561.709 686.343 562.101 685.947 562.595 685.657C563.099 685.368 563.664 685.223 564.289 685.223C564.915 685.223 565.475 685.368 565.969 685.657C566.473 685.947 566.87 686.343 567.159 686.847C567.449 687.351 567.593 687.93 567.593 688.583C567.593 689.227 567.449 689.806 567.159 690.319C566.87 690.823 566.473 691.22 565.969 691.509C565.475 691.799 564.915 691.943 564.289 691.943C563.664 691.943 563.099 691.799 562.595 691.509C562.101 691.22 561.709 690.823 561.419 690.319C561.13 689.806 560.985 689.227 560.985 688.583ZM561.727 688.583C561.727 689.106 561.839 689.568 562.063 689.969C562.287 690.371 562.591 690.688 562.973 690.921C563.365 691.145 563.804 691.257 564.289 691.257C564.775 691.257 565.209 691.145 565.591 690.921C565.983 690.688 566.291 690.371 566.515 689.969C566.739 689.568 566.851 689.106 566.851 688.583C566.851 688.07 566.739 687.613 566.515 687.211C566.291 686.801 565.983 686.483 565.591 686.259C565.209 686.026 564.775 685.909 564.289 685.909C563.804 685.909 563.365 686.026 562.973 686.259C562.591 686.483 562.287 686.796 562.063 687.197C561.839 687.599 561.727 688.061 561.727 688.583ZM573.71 691.117H576.832V685.363H577.56V691.803H569.132V685.363H569.86V691.117H572.982V685.363H573.71V691.117ZM584.909 685.363V691.803H584.181V686.049H580.499V689.563C580.499 690.067 580.429 690.487 580.289 690.823C580.159 691.15 579.963 691.397 579.701 691.565C579.44 691.724 579.123 691.803 578.749 691.803V691.131C579.029 691.131 579.267 691.005 579.463 690.753C579.669 690.501 579.771 690.105 579.771 689.563V685.363H584.909ZM586.579 688.583C586.579 687.93 586.724 687.351 587.013 686.847C587.303 686.343 587.695 685.947 588.189 685.657C588.693 685.368 589.258 685.223 589.883 685.223C590.509 685.223 591.069 685.368 591.563 685.657C592.067 685.947 592.464 686.343 592.753 686.847C593.043 687.351 593.187 687.93 593.187 688.583C593.187 689.227 593.043 689.806 592.753 690.319C592.464 690.823 592.067 691.22 591.563 691.509C591.069 691.799 590.509 691.943 589.883 691.943C589.258 691.943 588.693 691.799 588.189 691.509C587.695 691.22 587.303 690.823 587.013 690.319C586.724 689.806 586.579 689.227 586.579 688.583ZM587.321 688.583C587.321 689.106 587.433 689.568 587.657 689.969C587.881 690.371 588.185 690.688 588.567 690.921C588.959 691.145 589.398 691.257 589.883 691.257C590.369 691.257 590.803 691.145 591.185 690.921C591.577 690.688 591.885 690.371 592.109 689.969C592.333 689.568 592.445 689.106 592.445 688.583C592.445 688.07 592.333 687.613 592.109 687.211C591.885 686.801 591.577 686.483 591.185 686.259C590.803 686.026 590.369 685.909 589.883 685.909C589.398 685.909 588.959 686.026 588.567 686.259C588.185 686.483 587.881 686.796 587.657 687.197C587.433 687.599 587.321 688.061 587.321 688.583ZM594.796 685.363H598.058V686.049H595.524V691.803H594.796V685.363ZM598.474 688.583C598.474 687.93 598.618 687.351 598.908 686.847C599.197 686.343 599.589 685.947 600.084 685.657C600.588 685.368 601.152 685.223 601.778 685.223C602.403 685.223 602.963 685.368 603.458 685.657C603.962 685.947 604.358 686.343 604.648 686.847C604.937 687.351 605.082 687.93 605.082 688.583C605.082 689.227 604.937 689.806 604.648 690.319C604.358 690.823 603.962 691.22 603.458 691.509C602.963 691.799 602.403 691.943 601.778 691.943C601.152 691.943 600.588 691.799 600.084 691.509C599.589 691.22 599.197 690.823 598.908 690.319C598.618 689.806 598.474 689.227 598.474 688.583ZM599.216 688.583C599.216 689.106 599.328 689.568 599.552 689.969C599.776 690.371 600.079 690.688 600.462 690.921C600.854 691.145 601.292 691.257 601.778 691.257C602.263 691.257 602.697 691.145 603.08 690.921C603.472 690.688 603.78 690.371 604.004 689.969C604.228 689.568 604.34 689.106 604.34 688.583C604.34 688.07 604.228 687.613 604.004 687.211C603.78 686.801 603.472 686.483 603.08 686.259C602.697 686.026 602.263 685.909 601.778 685.909C601.292 685.909 600.854 686.026 600.462 686.259C600.079 686.483 599.776 686.796 599.552 687.197C599.328 687.599 599.216 688.061 599.216 688.583Z" fill="#100F0D"/>
</g>
<defs>
<filter id="filter0_d_58_3211" x="85" y="36" width="630" height="724" filterUnits="userSpaceOnUse" color-interpolation-filters="sRGB">
<feFlood flood-opacity="0" result="BackgroundImageFix"/>
<feColorMatrix in="SourceAlpha" type="matrix" values="0 0 0 0 0 0 0 0 0 0 0 0 0 0 0 0 0 0 127 0" result="hardAlpha"/>
<feOffset dx="-24" dy="24"/>
<feGaussianBlur stdDeviation="24"/>
<feComposite in2="hardAlpha" operator="out"/>
<feColorMatrix type="matrix" values="0 0 0 0 0 0 0 0 0 0 0 0 0 0 0 0 0 0 0.05 0"/>
<feBlend mode="normal" in2="BackgroundImageFix" result="effect1_dropShadow_58_3211"/>
<feBlend mode="normal" in="SourceGraphic" in2="effect1_dropShadow_58_3211" result="shape"/>
</filter>
<filter id="filter1_d_58_3211" x="0" y="193" width="639" height="502" filterUnits="userSpaceOnUse" color-interpolation-filters="sRGB">
<feFlood flood-opacity="0" result="BackgroundImageFix"/>
<feColorMatrix in="SourceAlpha" type="matrix" values="0 0 0 0 0 0 0 0 0 0 0 0 0 0 0 0 0 0 127 0" result="hardAlpha"/>
<feOffset dx="-24" dy="24"/>
<feGaussianBlur stdDeviation="24"/>
<feComposite in2="hardAlpha" operator="out"/>
<feColorMatrix type="matrix" values="0 0 0 0 0 0 0 0 0 0 0 0 0 0 0 0 0 0 0.05 0"/>
<feBlend mode="normal" in2="BackgroundImageFix" result="effect1_dropShadow_58_3211"/>
<feBlend mode="normal" in="SourceGraphic" in2="effect1_dropShadow_58_3211" result="shape"/>
</filter>
<filter id="filter2_d_58_3211" x="467" y="0" width="223.535" height="240" filterUnits="userSpaceOnUse" color-interpolation-filters="sRGB">
<feFlood flood-opacity="0" result="BackgroundImageFix"/>
<feColorMatrix in="SourceAlpha" type="matrix" values="0 0 0 0 0 0 0 0 0 0 0 0 0 0 0 0 0 0 127 0" result="hardAlpha"/>
<feOffset dx="-24" dy="24"/>
<feGaussianBlur stdDeviation="24"/>
<feComposite in2="hardAlpha" operator="out"/>
<feColorMatrix type="matrix" values="0 0 0 0 0 0 0 0 0 0 0 0 0 0 0 0 0 0 0.05 0"/>
<feBlend mode="normal" in2="BackgroundImageFix" result="effect1_dropShadow_58_3211"/>
<feBlend mode="normal" in="SourceGraphic" in2="effect1_dropShadow_58_3211" result="shape"/>
</filter>
<filter id="filter3_d_58_3211" x="132" y="634.607" width="536.438" height="152.393" filterUnits="userSpaceOnUse" color-interpolation-filters="sRGB">
<feFlood flood-opacity="0" result="BackgroundImageFix"/>
<feColorMatrix in="SourceAlpha" type="matrix" values="0 0 0 0 0 0 0 0 0 0 0 0 0 0 0 0 0 0 127 0" result="hardAlpha"/>
<feOffset dx="-24" dy="24"/>
<feGaussianBlur stdDeviation="24"/>
<feComposite in2="hardAlpha" operator="out"/>
<feColorMatrix type="matrix" values="0 0 0 0 0 0 0 0 0 0 0 0 0 0 0 0 0 0 0.05 0"/>
<feBlend mode="normal" in2="BackgroundImageFix" result="effect1_dropShadow_58_3211"/>
<feBlend mode="normal" in="SourceGraphic" in2="effect1_dropShadow_58_3211" result="shape"/>
</filter>
</defs>
</svg>
